<svg width="187" height="102" viewBox="0 0 187 102" fill="none" xmlns="http://www.w3.org/2000/svg">
<path d="M115.792 26.8835C115.792 33.8032 110.183 39.4127 103.263 39.4127L84.4692 39.4127C82.547 39.4127 80.9888 37.8545 80.9888 35.9324L80.9888 12.266C80.9888 8.42172 84.1052 5.30531 87.9495 5.30531L112.312 5.30532C114.234 5.30532 115.792 6.86352 115.792 8.78566L115.792 26.8835Z" fill="#E8F5E9"/>
<path d="M89.2834 13.6657C89.0662 13.6657 88.8896 13.4895 88.8896 13.272V12.6029C88.8896 12.3857 89.0659 12.2091 89.2834 12.2091C89.5006 12.2091 89.6771 12.3854 89.6771 12.6029V13.272C89.6771 13.4895 89.5006 13.6657 89.2834 13.6657Z" fill="#103E13"/>
<path d="M87.628 13.6657C87.4108 13.6657 87.2343 13.4895 87.2343 13.272V12.6029C87.2343 12.3857 87.4105 12.2091 87.628 12.2091C87.8452 12.2091 88.0217 12.3854 88.0217 12.6029V13.272C88.0215 13.4895 87.8455 13.6657 87.628 13.6657Z" fill="#103E13"/>
<path d="M85.9727 13.6657C85.7555 13.6657 85.579 13.4895 85.579 13.272V12.6029C85.579 12.3857 85.7553 12.2091 85.9727 12.2091C86.1899 12.2091 86.3665 12.3854 86.3665 12.6029V13.272C86.3665 13.4895 86.1902 13.6657 85.9727 13.6657Z" fill="#103E13"/>
<path d="M89.2834 16.4021C89.0662 16.4021 88.8896 16.2258 88.8896 16.0084V15.3395C88.8896 15.1223 89.0659 14.9457 89.2834 14.9457C89.5006 14.9457 89.6771 15.122 89.6771 15.3395V16.0084C89.6771 16.2258 89.5006 16.4021 89.2834 16.4021Z" fill="#103E13"/>
<path d="M87.628 16.4021C87.4108 16.4021 87.2343 16.2258 87.2343 16.0084V15.3395C87.2343 15.1223 87.4105 14.9457 87.628 14.9457C87.8452 14.9457 88.0217 15.122 88.0217 15.3395V16.0084C88.0215 16.2258 87.8455 16.4021 87.628 16.4021Z" fill="#103E13"/>
<path d="M85.9727 16.4021C85.7555 16.4021 85.579 16.2258 85.579 16.0084V15.3395C85.579 15.1223 85.7553 14.9457 85.9727 14.9457C86.1899 14.9457 86.3665 15.122 86.3665 15.3395V16.0084C86.3665 16.2258 86.1902 16.4021 85.9727 16.4021Z" fill="#103E13"/>
<path d="M89.2834 19.1386C89.0662 19.1386 88.8896 18.9623 88.8896 18.7448V18.0757C88.8896 17.8585 89.0659 17.6819 89.2834 17.6819C89.5006 17.6819 89.6771 17.8582 89.6771 18.0757V18.7448C89.6771 18.9623 89.5006 19.1386 89.2834 19.1386Z" fill="#103E13"/>
<path d="M87.628 19.1386C87.4108 19.1386 87.2343 18.9623 87.2343 18.7448V18.0757C87.2343 17.8585 87.4105 17.6819 87.628 17.6819C87.8452 17.6819 88.0217 17.8582 88.0217 18.0757V18.7448C88.0215 18.9623 87.8455 19.1386 87.628 19.1386Z" fill="#103E13"/>
<path d="M85.9727 19.1386C85.7555 19.1386 85.579 18.9623 85.579 18.7448V18.0757C85.579 17.8585 85.7553 17.6819 85.9727 17.6819C86.1899 17.6819 86.3665 17.8582 86.3665 18.0757V18.7448C86.3665 18.9623 86.1902 19.1386 85.9727 19.1386Z" fill="#103E13"/>
<path d="M89.2834 21.8744C89.0662 21.8744 88.8896 21.6981 88.8896 21.4807V20.8115C88.8896 20.5943 89.0659 20.4178 89.2834 20.4178C89.5006 20.4178 89.6771 20.5941 89.6771 20.8115V21.4807C89.6771 21.6981 89.5006 21.8744 89.2834 21.8744Z" fill="#103E13"/>
<path d="M87.628 21.8744C87.4108 21.8744 87.2343 21.6981 87.2343 21.4807V20.8115C87.2343 20.5943 87.4105 20.4178 87.628 20.4178C87.8452 20.4178 88.0217 20.5941 88.0217 20.8115V21.4807C88.0215 21.6981 87.8455 21.8744 87.628 21.8744Z" fill="#103E13"/>
<path d="M85.9727 21.8744C85.7555 21.8744 85.579 21.6981 85.579 21.4807V20.8115C85.579 20.5943 85.7553 20.4178 85.9727 20.4178C86.1899 20.4178 86.3665 20.5941 86.3665 20.8115V21.4807C86.3665 21.6981 86.1902 21.8744 85.9727 21.8744Z" fill="#103E13"/>
<path d="M89.2834 24.6108C89.0662 24.6108 88.8896 24.4345 88.8896 24.217V23.5482C88.8896 23.331 89.0659 23.1544 89.2834 23.1544C89.5006 23.1544 89.6771 23.3307 89.6771 23.5482V24.217C89.6771 24.4342 89.5006 24.6108 89.2834 24.6108Z" fill="#103E13"/>
<path d="M87.628 24.6108C87.4108 24.6108 87.2343 24.4345 87.2343 24.217V23.5482C87.2343 23.331 87.4105 23.1544 87.628 23.1544C87.8452 23.1544 88.0217 23.3307 88.0217 23.5482V24.217C88.0215 24.4342 87.8455 24.6108 87.628 24.6108Z" fill="#103E13"/>
<path d="M85.9727 24.6108C85.7555 24.6108 85.579 24.4345 85.579 24.217L85.5793 23.5482C85.5793 23.331 85.7555 23.1544 85.973 23.1544C86.1902 23.1544 86.3668 23.3307 86.3668 23.5482V24.217C86.3665 24.4342 86.1902 24.6108 85.9727 24.6108Z" fill="#103E13"/>
<path d="M74.7245 27.334C74.7245 27.5512 74.9008 27.7277 75.1183 27.7277H99.0963C99.3135 27.7277 99.49 27.5514 99.49 27.334C99.49 27.1168 99.3138 26.9402 99.0963 26.9402H98.3684V15.6352C98.3684 15.418 98.1921 15.2414 97.9747 15.2414L91.546 15.2417V7.09132C91.546 6.95348 91.474 6.82608 91.3565 6.75468C91.2393 6.68302 91.0926 6.67863 90.9707 6.74205L83.6618 10.5475C83.5313 10.6153 83.4501 10.7498 83.4501 10.8967V18.0159H76.3766C76.1594 18.0159 75.9828 18.1922 75.9828 18.4097V26.9403H75.1174C74.9002 26.94 74.7242 27.1163 74.7242 27.3338L74.7245 27.334ZM91.5461 21.2051H97.5813V26.9406L91.5461 26.9403V21.2051ZM91.5461 18.469H97.5813V20.4179L91.5461 20.4177V18.469ZM91.5461 16.0288H97.5813V17.682H91.5461V16.0288ZM84.2371 11.1358L90.7583 7.74035V26.9399H84.2371V11.1358ZM78.7168 23.7954C78.7168 22.9783 79.3642 22.3132 80.1602 22.3132C80.9562 22.3132 81.6039 22.978 81.6039 23.7954V26.9404H78.7168V23.7954ZM76.7703 18.8033H83.4499V26.9403H82.3914V23.7953C82.3914 22.544 81.3909 21.5259 80.1602 21.5259C78.9301 21.5259 77.9295 22.5437 77.9295 23.7953V26.9403H76.7703V18.8033Z" fill="#103E13"/>
<path d="M66.6499 56.3754V70.5499H64.0614L57.8947 61.6285H57.7909V70.5499H54.794V56.3754H57.424L63.5423 65.2898H63.6669V56.3754H66.6499ZM72.1021 70.7506C71.4238 70.7506 70.8193 70.6329 70.2887 70.3976C69.7581 70.1577 69.3382 69.8047 69.0291 69.3387C68.7245 68.868 68.5723 68.282 68.5723 67.5807C68.5723 66.9901 68.6807 66.4941 68.8976 66.0926C69.1144 65.6912 69.4097 65.3682 69.7835 65.1237C70.1572 64.8791 70.5817 64.6946 71.057 64.57C71.5368 64.4454 72.0398 64.3577 72.5658 64.307C73.1841 64.2424 73.6824 64.1824 74.0607 64.127C74.4391 64.0671 74.7136 63.9794 74.8844 63.864C75.0551 63.7487 75.1404 63.578 75.1404 63.3519V63.3103C75.1404 62.872 75.002 62.5329 74.7252 62.2929C74.4529 62.053 74.0654 61.933 73.5624 61.933C73.0318 61.933 72.6096 62.0507 72.2959 62.286C71.9821 62.5167 71.7745 62.8074 71.673 63.1581L68.946 62.9366C69.0844 62.2906 69.3567 61.7323 69.7627 61.2617C70.1688 60.7864 70.6925 60.4219 71.3338 60.1681C71.9798 59.9098 72.7273 59.7806 73.5763 59.7806C74.1669 59.7806 74.7321 59.8498 75.2719 59.9882C75.8164 60.1266 76.2986 60.3412 76.7185 60.6319C77.143 60.9226 77.4775 61.2963 77.722 61.7531C77.9666 62.2053 78.0889 62.7474 78.0889 63.3796V70.5499H75.2927V69.0757H75.2097C75.0389 69.4079 74.8105 69.7009 74.5245 69.9546C74.2384 70.2038 73.8946 70.3999 73.4932 70.5429C73.0918 70.6814 72.6281 70.7506 72.1021 70.7506ZM72.9464 68.7158C73.3802 68.7158 73.7631 68.6304 74.0954 68.4597C74.4276 68.2843 74.6883 68.049 74.8774 67.7537C75.0666 67.4584 75.1612 67.1239 75.1612 66.7502V65.622C75.0689 65.682 74.942 65.7374 74.7805 65.7881C74.6237 65.8343 74.446 65.8781 74.2476 65.9196C74.0492 65.9565 73.8508 65.9911 73.6524 66.0234C73.454 66.0511 73.274 66.0765 73.1125 66.0996C72.7665 66.1503 72.4643 66.2311 72.2059 66.3418C71.9475 66.4525 71.7468 66.6025 71.6037 66.7917C71.4607 66.9762 71.3892 67.207 71.3892 67.4838C71.3892 67.8852 71.5345 68.1921 71.8252 68.4043C72.1205 68.6119 72.4943 68.7158 72.9464 68.7158ZM86.0309 59.919V62.1338H79.6288V59.919H86.0309ZM81.0823 57.372H84.0307V67.2831C84.0307 67.5553 84.0722 67.7676 84.1552 67.9198C84.2383 68.0675 84.3536 68.1713 84.5013 68.2313C84.6536 68.2913 84.8289 68.3213 85.0273 68.3213C85.1657 68.3213 85.3041 68.3097 85.4426 68.2867C85.581 68.259 85.6871 68.2382 85.7609 68.2244L86.2247 70.4184C86.077 70.4645 85.8694 70.5176 85.6018 70.5776C85.3341 70.6421 85.0088 70.6814 84.6259 70.6952C83.9153 70.7229 83.2924 70.6283 82.7572 70.4114C82.2265 70.1946 81.8136 69.8578 81.5183 69.401C81.223 68.9442 81.0776 68.3674 81.0823 67.6707V57.372ZM87.9515 70.5499V59.919H90.8999V70.5499H87.9515ZM89.4326 58.5486C88.9943 58.5486 88.6182 58.4033 88.3045 58.1126C87.9953 57.8173 87.8407 57.4643 87.8407 57.0536C87.8407 56.6476 87.9953 56.2992 88.3045 56.0085C88.6182 55.7132 88.9943 55.5656 89.4326 55.5656C89.8709 55.5656 90.2447 55.7132 90.5538 56.0085C90.8676 56.2992 91.0245 56.6476 91.0245 57.0536C91.0245 57.4643 90.8676 57.8173 90.5538 58.1126C90.2447 58.4033 89.8709 58.5486 89.4326 58.5486ZM98.065 70.7575C96.9899 70.7575 96.0602 70.5291 95.2758 70.0723C94.496 69.6109 93.8939 68.9695 93.4694 68.1482C93.0449 67.3223 92.8326 66.3649 92.8326 65.276C92.8326 64.1778 93.0449 63.2181 93.4694 62.3968C93.8939 61.5708 94.496 60.9295 95.2758 60.4727C96.0602 60.0113 96.9899 59.7806 98.065 59.7806C99.1401 59.7806 100.068 60.0113 100.847 60.4727C101.632 60.9295 102.236 61.5708 102.661 62.3968C103.085 63.2181 103.297 64.1778 103.297 65.276C103.297 66.3649 103.085 67.3223 102.661 68.1482C102.236 68.9695 101.632 69.6109 100.847 70.0723C100.068 70.5291 99.1401 70.7575 98.065 70.7575ZM98.0789 68.4735C98.568 68.4735 98.9763 68.3351 99.3039 68.0583C99.6315 67.7768 99.8784 67.3938 100.044 66.9093C100.215 66.4249 100.301 65.8735 100.301 65.2552C100.301 64.6369 100.215 64.0855 100.044 63.601C99.8784 63.1166 99.6315 62.7336 99.3039 62.4521C98.9763 62.1707 98.568 62.0299 98.0789 62.0299C97.5851 62.0299 97.1699 62.1707 96.833 62.4521C96.5008 62.7336 96.2494 63.1166 96.0786 63.601C95.9125 64.0855 95.8295 64.6369 95.8295 65.2552C95.8295 65.8735 95.9125 66.4249 96.0786 66.9093C96.2494 67.3938 96.5008 67.7768 96.833 68.0583C97.1699 68.3351 97.5851 68.4735 98.0789 68.4735ZM108.163 64.4039V70.5499H105.215V59.919H108.025V61.7946H108.149C108.384 61.1763 108.779 60.6872 109.333 60.3273C109.886 59.9628 110.558 59.7806 111.347 59.7806C112.085 59.7806 112.729 59.9421 113.278 60.265C113.827 60.588 114.254 61.0494 114.558 61.6493C114.863 62.2445 115.015 62.9551 115.015 63.781V70.5499H112.066V64.307C112.071 63.6564 111.905 63.1489 111.568 62.7843C111.231 62.4152 110.768 62.2306 110.177 62.2306C109.78 62.2306 109.43 62.316 109.125 62.4867C108.825 62.6575 108.59 62.9066 108.419 63.2342C108.253 63.5572 108.168 63.9471 108.163 64.4039ZM120.37 70.7506C119.692 70.7506 119.087 70.6329 118.557 70.3976C118.026 70.1577 117.606 69.8047 117.297 69.3387C116.993 68.868 116.84 68.282 116.84 67.5807C116.84 66.9901 116.949 66.4941 117.166 66.0926C117.383 65.6912 117.678 65.3682 118.052 65.1237C118.425 64.8791 118.85 64.6946 119.325 64.57C119.805 64.4454 120.308 64.3577 120.834 64.307C121.452 64.2424 121.95 64.1824 122.329 64.127C122.707 64.0671 122.982 63.9794 123.152 63.864C123.323 63.7487 123.409 63.578 123.409 63.3519V63.3103C123.409 62.872 123.27 62.5329 122.993 62.2929C122.721 62.053 122.333 61.933 121.83 61.933C121.3 61.933 120.878 62.0507 120.564 62.286C120.25 62.5167 120.043 62.8074 119.941 63.1581L117.214 62.9366C117.353 62.2906 117.625 61.7323 118.031 61.2617C118.437 60.7864 118.961 60.4219 119.602 60.1681C120.248 59.9098 120.995 59.7806 121.844 59.7806C122.435 59.7806 123 59.8498 123.54 59.9882C124.084 60.1266 124.567 60.3412 124.987 60.6319C125.411 60.9226 125.746 61.2963 125.99 61.7531C126.235 62.2053 126.357 62.7474 126.357 63.3796V70.5499H123.561V69.0757H123.478C123.307 69.4079 123.079 69.7009 122.793 69.9546C122.506 70.2038 122.163 70.3999 121.761 70.5429C121.36 70.6814 120.896 70.7506 120.37 70.7506ZM121.215 68.7158C121.648 68.7158 122.031 68.6304 122.363 68.4597C122.696 68.2843 122.956 68.049 123.146 67.7537C123.335 67.4584 123.429 67.1239 123.429 66.7502V65.622C123.337 65.682 123.21 65.7374 123.049 65.7881C122.892 65.8343 122.714 65.8781 122.516 65.9196C122.317 65.9565 122.119 65.9911 121.92 66.0234C121.722 66.0511 121.542 66.0765 121.381 66.0996C121.035 66.1503 120.732 66.2311 120.474 66.3418C120.216 66.4525 120.015 66.6025 119.872 66.7917C119.729 66.9762 119.657 67.207 119.657 67.4838C119.657 67.8852 119.803 68.1921 120.093 68.4043C120.389 68.6119 120.762 68.7158 121.215 68.7158ZM131.593 56.3754V70.5499H128.644V56.3754H131.593ZM34.7781 95.5499H31.5666L36.4599 81.3754H40.3219L45.2082 95.5499H41.9968L38.4463 84.6145H38.3355L34.7781 95.5499ZM34.5773 89.9783H42.1629V92.3177H34.5773V89.9783ZM55.4567 87.9504L52.7575 88.1166C52.7113 87.8859 52.6121 87.6782 52.4599 87.4937C52.3076 87.3045 52.1069 87.1545 51.8577 87.0438C51.6132 86.9284 51.3202 86.8707 50.9787 86.8707C50.5219 86.8707 50.1367 86.9676 49.8229 87.1614C49.5091 87.3506 49.3523 87.6044 49.3523 87.9228C49.3523 88.1765 49.4538 88.3911 49.6568 88.5664C49.8598 88.7418 50.2082 88.8825 50.7019 88.9886L52.626 89.3762C53.6595 89.5885 54.4301 89.9299 54.9376 90.4005C55.4452 90.8712 55.6989 91.4895 55.6989 92.2554C55.6989 92.9521 55.4936 93.5635 55.083 94.0895C54.6769 94.6155 54.1186 95.0262 53.4081 95.3215C52.7021 95.6122 51.8877 95.7575 50.9649 95.7575C49.5576 95.7575 48.4364 95.4645 47.6012 94.8785C46.7707 94.2879 46.2839 93.4851 46.1408 92.47L49.0408 92.3177C49.1285 92.7468 49.3407 93.0744 49.6776 93.3005C50.0144 93.522 50.4458 93.6327 50.9718 93.6327C51.4886 93.6327 51.9039 93.5335 52.2176 93.3351C52.536 93.1321 52.6975 92.8714 52.7021 92.553C52.6975 92.2854 52.5844 92.0662 52.363 91.8955C52.1415 91.7202 51.8 91.5864 51.3386 91.4941L49.4976 91.1273C48.4594 90.9196 47.6866 90.5597 47.179 90.0476C46.6761 89.5354 46.4246 88.8825 46.4246 88.0889C46.4246 87.406 46.6092 86.8177 46.9783 86.324C47.352 85.8303 47.8757 85.4496 48.5494 85.182C49.2277 84.9144 50.0213 84.7806 50.9303 84.7806C52.273 84.7806 53.3296 85.0643 54.1002 85.6319C54.8753 86.1994 55.3275 86.9723 55.4567 87.9504ZM66.4008 87.9504L63.7015 88.1166C63.6554 87.8859 63.5562 87.6782 63.4039 87.4937C63.2516 87.3045 63.0509 87.1545 62.8018 87.0438C62.5572 86.9284 62.2642 86.8707 61.9228 86.8707C61.466 86.8707 61.0807 86.9676 60.767 87.1614C60.4532 87.3506 60.2963 87.6044 60.2963 87.9228C60.2963 88.1765 60.3978 88.3911 60.6008 88.5664C60.8039 88.7418 61.1522 88.8825 61.6459 88.9886L63.57 89.3762C64.6036 89.5885 65.3741 89.9299 65.8817 90.4005C66.3892 90.8712 66.643 91.4895 66.643 92.2554C66.643 92.9521 66.4377 93.5635 66.027 94.0895C65.621 94.6155 65.0627 95.0262 64.3521 95.3215C63.6462 95.6122 62.8318 95.7575 61.9089 95.7575C60.5016 95.7575 59.3804 95.4645 58.5453 94.8785C57.7147 94.2879 57.2279 93.4851 57.0849 92.47L59.9849 92.3177C60.0725 92.7468 60.2848 93.0744 60.6216 93.3005C60.9584 93.522 61.3899 93.6327 61.9159 93.6327C62.4326 93.6327 62.8479 93.5335 63.1617 93.3351C63.48 93.1321 63.6415 92.8714 63.6462 92.553C63.6415 92.2854 63.5285 92.0662 63.307 91.8955C63.0855 91.7202 62.7441 91.5864 62.2827 91.4941L60.4417 91.1273C59.4035 90.9196 58.6306 90.5597 58.1231 90.0476C57.6201 89.5354 57.3687 88.8825 57.3687 88.0889C57.3687 87.406 57.5532 86.8177 57.9224 86.324C58.2961 85.8303 58.8198 85.4496 59.4935 85.182C60.1717 84.9144 60.9654 84.7806 61.8743 84.7806C63.217 84.7806 64.2737 85.0643 65.0442 85.6319C65.8194 86.1994 66.2716 86.9723 66.4008 87.9504ZM73.3029 95.7575C72.2278 95.7575 71.2981 95.5291 70.5137 95.0723C69.7339 94.6109 69.1317 93.9695 68.7072 93.1482C68.2827 92.3223 68.0705 91.3649 68.0705 90.276C68.0705 89.1778 68.2827 88.2181 68.7072 87.3968C69.1317 86.5708 69.7339 85.9295 70.5137 85.4727C71.2981 85.0113 72.2278 84.7806 73.3029 84.7806C74.378 84.7806 75.3054 85.0113 76.0852 85.4727C76.8696 85.9295 77.474 86.5708 77.8985 87.3968C78.323 88.2181 78.5353 89.1778 78.5353 90.276C78.5353 91.3649 78.323 92.3223 77.8985 93.1482C77.474 93.9695 76.8696 94.6109 76.0852 95.0723C75.3054 95.5291 74.378 95.7575 73.3029 95.7575ZM73.3167 93.4735C73.8058 93.4735 74.2142 93.3351 74.5418 93.0583C74.8694 92.7768 75.1162 92.3938 75.2823 91.9093C75.4531 91.4249 75.5384 90.8735 75.5384 90.2552C75.5384 89.6369 75.4531 89.0855 75.2823 88.601C75.1162 88.1166 74.8694 87.7336 74.5418 87.4521C74.2142 87.1707 73.8058 87.0299 73.3167 87.0299C72.823 87.0299 72.4077 87.1707 72.0709 87.4521C71.7387 87.7336 71.4872 88.1166 71.3165 88.601C71.1504 89.0855 71.0674 89.6369 71.0674 90.2552C71.0674 90.8735 71.1504 91.4249 71.3165 91.9093C71.4872 92.3938 71.7387 92.7768 72.0709 93.0583C72.4077 93.3351 72.823 93.4735 73.3167 93.4735ZM85.2557 95.7575C84.1668 95.7575 83.2301 95.5268 82.4457 95.0654C81.6659 94.5994 81.0661 93.9534 80.6462 93.1275C80.2309 92.3015 80.0233 91.351 80.0233 90.276C80.0233 89.187 80.2333 88.2319 80.6531 87.4106C81.0776 86.5847 81.6798 85.941 82.4596 85.4796C83.2393 85.0136 84.1668 84.7806 85.2419 84.7806C86.1693 84.7806 86.9814 84.949 87.6781 85.2858C88.3748 85.6226 88.9262 86.0956 89.3322 86.7046C89.7383 87.3137 89.9621 88.0289 90.0036 88.8502H87.2213C87.1429 88.3196 86.9352 87.8928 86.5984 87.5698C86.2662 87.2422 85.8302 87.0784 85.2903 87.0784C84.8335 87.0784 84.4344 87.203 84.0929 87.4521C83.7561 87.6967 83.4931 88.0543 83.3039 88.5249C83.1148 88.9955 83.0202 89.5654 83.0202 90.2344C83.0202 90.9127 83.1124 91.4895 83.297 91.9647C83.4862 92.44 83.7515 92.8022 84.0929 93.0513C84.4344 93.3005 84.8335 93.4251 85.2903 93.4251C85.6271 93.4251 85.9294 93.3559 86.197 93.2174C86.4692 93.079 86.693 92.8783 86.8683 92.6153C87.0483 92.3477 87.1659 92.027 87.2213 91.6533H90.0036C89.9575 92.4653 89.736 93.1805 89.3392 93.7988C88.947 94.4125 88.4048 94.8924 87.7127 95.2384C87.0206 95.5845 86.2016 95.7575 85.2557 95.7575ZM91.8913 95.5499V84.919H94.8398V95.5499H91.8913ZM93.3725 83.5486C92.9341 83.5486 92.5581 83.4033 92.2443 83.1126C91.9352 82.8173 91.7806 82.4643 91.7806 82.0536C91.7806 81.6476 91.9352 81.2992 92.2443 81.0085C92.5581 80.7132 92.9341 80.5656 93.3725 80.5656C93.8108 80.5656 94.1846 80.7132 94.4937 81.0085C94.8075 81.2992 94.9643 81.6476 94.9643 82.0536C94.9643 82.4643 94.8075 82.8173 94.4937 83.1126C94.1846 83.4033 93.8108 83.5486 93.3725 83.5486ZM100.233 95.7506C99.5548 95.7506 98.9503 95.6329 98.4197 95.3976C97.8891 95.1577 97.4692 94.8047 97.1601 94.3387C96.8555 93.868 96.7033 93.282 96.7033 92.5807C96.7033 91.9901 96.8117 91.4941 97.0286 91.0926C97.2454 90.6912 97.5407 90.3682 97.9145 90.1237C98.2882 89.8791 98.7127 89.6946 99.188 89.57C99.6678 89.4454 100.171 89.3577 100.697 89.307C101.315 89.2424 101.813 89.1824 102.192 89.127C102.57 89.0671 102.845 88.9794 103.015 88.864C103.186 88.7487 103.271 88.578 103.271 88.3519V88.3103C103.271 87.872 103.133 87.5329 102.856 87.2929C102.584 87.053 102.196 86.933 101.693 86.933C101.163 86.933 100.741 87.0507 100.427 87.286C100.113 87.5167 99.9055 87.8074 99.8039 88.1581L97.077 87.9366C97.2154 87.2906 97.4877 86.7323 97.8937 86.2617C98.2998 85.7864 98.8235 85.4219 99.4648 85.1681C100.111 84.9098 100.858 84.7806 101.707 84.7806C102.298 84.7806 102.863 84.8498 103.403 84.9882C103.947 85.1266 104.43 85.3412 104.849 85.6319C105.274 85.9226 105.608 86.2963 105.853 86.7531C106.098 87.2053 106.22 87.7474 106.22 88.3796V95.5499H103.424V94.0757H103.341C103.17 94.4079 102.942 94.7009 102.655 94.9546C102.369 95.2038 102.026 95.3999 101.624 95.5429C101.223 95.6814 100.759 95.7506 100.233 95.7506ZM101.077 93.7158C101.511 93.7158 101.894 93.6304 102.226 93.4597C102.559 93.2843 102.819 93.049 103.008 92.7537C103.198 92.4584 103.292 92.1239 103.292 91.7502V90.622C103.2 90.682 103.073 90.7374 102.912 90.7881C102.755 90.8343 102.577 90.8781 102.379 90.9196C102.18 90.9565 101.982 90.9911 101.783 91.0234C101.585 91.0511 101.405 91.0765 101.244 91.0996C100.897 91.1503 100.595 91.2311 100.337 91.3418C100.078 91.4525 99.8778 91.6025 99.7347 91.7917C99.5917 91.9762 99.5202 92.207 99.5202 92.4838C99.5202 92.8852 99.6655 93.1921 99.9562 93.4043C100.252 93.6119 100.625 93.7158 101.077 93.7158ZM114.162 84.919V87.1338H107.76V84.919H114.162ZM109.213 82.372H112.162V92.2831C112.162 92.5553 112.203 92.7676 112.286 92.9198C112.369 93.0675 112.485 93.1713 112.632 93.2313C112.785 93.2913 112.96 93.3213 113.158 93.3213C113.297 93.3213 113.435 93.3097 113.574 93.2867C113.712 93.259 113.818 93.2382 113.892 93.2244L114.356 95.4184C114.208 95.4645 114 95.5176 113.733 95.5776C113.465 95.6421 113.14 95.6814 112.757 95.6952C112.046 95.7229 111.423 95.6283 110.888 95.4114C110.358 95.1946 109.945 94.8578 109.649 94.401C109.354 93.9442 109.209 93.3674 109.213 92.6707V82.372ZM116.082 95.5499V84.919H119.031V95.5499H116.082ZM117.564 83.5486C117.125 83.5486 116.749 83.4033 116.435 83.1126C116.126 82.8173 115.972 82.4643 115.972 82.0536C115.972 81.6476 116.126 81.2992 116.435 81.0085C116.749 80.7132 117.125 80.5656 117.564 80.5656C118.002 80.5656 118.376 80.7132 118.685 81.0085C118.999 81.2992 119.155 81.6476 119.155 82.0536C119.155 82.4643 118.999 82.8173 118.685 83.1126C118.376 83.4033 118.002 83.5486 117.564 83.5486ZM126.196 95.7575C125.121 95.7575 124.191 95.5291 123.407 95.0723C122.627 94.6109 122.025 93.9695 121.6 93.1482C121.176 92.3223 120.964 91.3649 120.964 90.276C120.964 89.1778 121.176 88.2181 121.6 87.3968C122.025 86.5708 122.627 85.9295 123.407 85.4727C124.191 85.0113 125.121 84.7806 126.196 84.7806C127.271 84.7806 128.199 85.0113 128.978 85.4727C129.763 85.9295 130.367 86.5708 130.792 87.3968C131.216 88.2181 131.428 89.1778 131.428 90.276C131.428 91.3649 131.216 92.3223 130.792 93.1482C130.367 93.9695 129.763 94.6109 128.978 95.0723C128.199 95.5291 127.271 95.7575 126.196 95.7575ZM126.21 93.4735C126.699 93.4735 127.107 93.3351 127.435 93.0583C127.762 92.7768 128.009 92.3938 128.175 91.9093C128.346 91.4249 128.432 90.8735 128.432 90.2552C128.432 89.6369 128.346 89.0855 128.175 88.601C128.009 88.1166 127.762 87.7336 127.435 87.4521C127.107 87.1707 126.699 87.0299 126.21 87.0299C125.716 87.0299 125.301 87.1707 124.964 87.4521C124.632 87.7336 124.38 88.1166 124.21 88.601C124.044 89.0855 123.96 89.6369 123.96 90.2552C123.96 90.8735 124.044 91.4249 124.21 91.9093C124.38 92.3938 124.632 92.7768 124.964 93.0583C125.301 93.3351 125.716 93.4735 126.21 93.4735ZM136.294 89.4039V95.5499H133.346V84.919H136.156V86.7946H136.28C136.515 86.1763 136.91 85.6872 137.464 85.3273C138.017 84.9628 138.689 84.7806 139.478 84.7806C140.216 84.7806 140.86 84.9421 141.409 85.265C141.958 85.588 142.385 86.0494 142.689 86.6493C142.994 87.2445 143.146 87.9551 143.146 88.781V95.5499H140.197V89.307C140.202 88.6564 140.036 88.1489 139.699 87.7843C139.362 87.4152 138.899 87.2306 138.308 87.2306C137.911 87.2306 137.561 87.316 137.256 87.4867C136.956 87.6575 136.721 87.9066 136.55 88.2342C136.384 88.5572 136.299 88.9471 136.294 89.4039ZM154.315 87.9504L151.616 88.1166C151.569 87.8859 151.47 87.6782 151.318 87.4937C151.166 87.3045 150.965 87.1545 150.716 87.0438C150.471 86.9284 150.178 86.8707 149.837 86.8707C149.38 86.8707 148.995 86.9676 148.681 87.1614C148.367 87.3506 148.21 87.6044 148.21 87.9228C148.21 88.1765 148.312 88.3911 148.515 88.5664C148.718 88.7418 149.066 88.8825 149.56 88.9886L151.484 89.3762C152.518 89.5885 153.288 89.9299 153.796 90.4005C154.303 90.8712 154.557 91.4895 154.557 92.2554C154.557 92.9521 154.352 93.5635 153.941 94.0895C153.535 94.6155 152.977 95.0262 152.266 95.3215C151.56 95.6122 150.746 95.7575 149.823 95.7575C148.416 95.7575 147.295 95.4645 146.459 94.8785C145.629 94.2879 145.142 93.4851 144.999 92.47L147.899 92.3177C147.987 92.7468 148.199 93.0744 148.536 93.3005C148.873 93.522 149.304 93.6327 149.83 93.6327C150.347 93.6327 150.762 93.5335 151.076 93.3351C151.394 93.1321 151.556 92.8714 151.56 92.553C151.556 92.2854 151.443 92.0662 151.221 91.8955C151 91.7202 150.658 91.5864 150.197 91.4941L148.356 91.1273C147.318 90.9196 146.545 90.5597 146.037 90.0476C145.534 89.5354 145.283 88.8825 145.283 88.0889C145.283 87.406 145.467 86.8177 145.836 86.324C146.21 85.8303 146.734 85.4496 147.408 85.182C148.086 84.9144 148.879 84.7806 149.788 84.7806C151.131 84.7806 152.188 85.0643 152.958 85.6319C153.734 86.1994 154.186 86.9723 154.315 87.9504Z" fill="#4D4D4D"/>
</svg>
