<svg width="187" height="102" viewBox="0 0 187 102" fill="none" xmlns="http://www.w3.org/2000/svg">
<path d="M115.919 26.8835C115.919 33.8032 110.309 39.4127 103.389 39.4127L84.5956 39.4127C82.6734 39.4127 81.1152 37.8545 81.1152 35.9324L81.1152 12.266C81.1152 8.42172 84.2316 5.30531 88.0759 5.30531L112.438 5.30532C114.361 5.30532 115.919 6.86352 115.919 8.78566L115.919 26.8835Z" fill="#E8F5E9"/>
<path d="M87.3729 7.39355C84.8871 7.39355 82.8634 9.43574 82.8634 11.9322C82.8634 13.5114 83.6743 14.9059 84.8989 15.7187C83.4199 16.2132 82.1401 17.1375 81.2014 18.3467C80.6824 17.9475 80.1025 17.6265 79.4774 17.3964C80.4254 16.6927 81.0448 15.5622 81.0448 14.2916C81.0448 12.1743 79.3325 10.4411 77.228 10.4411C75.1236 10.4411 73.4112 12.1743 73.4112 14.2916C73.4112 15.5629 74.0312 16.6939 74.9799 17.3977C72.4681 18.3246 70.6742 20.7513 70.6742 23.6073V25.6135C70.6745 25.7664 70.7356 25.9129 70.8441 26.0206C70.9526 26.1286 71.0993 26.1887 71.2523 26.1882H80.0541C80.0754 26.1905 80.0967 26.1918 80.1181 26.1916H94.6282C94.6495 26.1918 94.6711 26.1905 94.6922 26.1882H103.495C103.811 26.1869 104.067 25.9301 104.068 25.6135V23.6073C104.068 20.7513 102.277 18.3246 99.7668 17.3974C100.716 16.6939 101.336 15.5626 101.336 14.2913C101.336 12.1741 99.6231 10.4408 97.5187 10.4408C95.4143 10.4408 93.7019 12.1741 93.7019 14.2913C93.7019 15.5619 94.3216 16.6926 95.2696 17.3962C94.6432 17.6267 94.063 17.9488 93.5433 18.349C92.6051 17.1391 91.3271 16.2135 89.8481 15.7187C91.0723 14.9059 91.8836 13.5114 91.8836 11.9322C91.8836 9.43574 89.8589 7.39355 87.373 7.39355H87.3729ZM87.3729 8.5451C89.2321 8.5451 90.7309 10.054 90.7309 11.9322C90.7309 13.7957 89.2554 15.2899 87.4168 15.3138C87.4022 15.3138 87.3878 15.3118 87.3729 15.3118C87.358 15.3118 87.3438 15.3138 87.3289 15.3138C85.4903 15.2902 84.0159 13.7958 84.0159 11.9322C84.0159 10.0537 85.5134 8.5451 87.3726 8.5451H87.3729ZM77.2281 11.5926C78.7032 11.5926 79.8934 12.7898 79.8934 14.2915C79.8934 15.7831 78.7186 16.9753 77.2574 16.9915C77.2476 16.9915 77.2381 16.9904 77.2281 16.9904C77.2183 16.9904 77.2088 16.9915 77.1988 16.9915C75.7375 16.9753 74.5628 15.7829 74.5628 14.2915C74.5628 12.7899 75.7529 11.5926 77.228 11.5926H77.2281ZM97.5184 11.5926C98.9935 11.5926 100.184 12.7898 100.184 14.2915C100.184 15.7831 99.0089 16.9753 97.5476 16.9915C97.5379 16.9915 97.5284 16.9904 97.5183 16.9904C97.5086 16.9904 97.4991 16.9915 97.489 16.9915C96.0277 16.9753 94.853 15.7829 94.853 14.2915C94.853 12.7899 96.0431 11.5926 97.5183 11.5926H97.5184ZM87.3288 16.4653C87.3435 16.4656 87.3578 16.4674 87.3728 16.4674C87.3874 16.4674 87.4018 16.4653 87.4167 16.4653C91.104 16.489 94.0549 19.4653 94.0549 23.191L94.0546 25.0397H80.6914V23.191C80.6914 19.4649 83.6415 16.489 87.3283 16.4653H87.3288ZM77.184 18.1443C77.1986 18.1446 77.213 18.1464 77.2279 18.1464C77.2429 18.1464 77.257 18.1443 77.2719 18.1443C78.5191 18.1544 79.6572 18.5844 80.5636 19.3038C79.915 20.4513 79.54 21.7758 79.54 23.1913V25.0356H71.8253V23.6072C71.8253 20.5792 74.206 18.168 77.1839 18.1441L77.184 18.1443ZM97.4743 18.1443C97.4892 18.1446 97.5033 18.1464 97.5182 18.1464C97.5331 18.1464 97.5473 18.1443 97.5622 18.1443C100.54 18.168 102.921 20.5796 102.921 23.6075V25.0356H95.2021L95.2018 23.1913C95.2018 21.7766 94.8278 20.4531 94.1806 19.3059C95.0871 18.5854 96.2261 18.1543 97.4743 18.1443H97.4743Z" fill="#103E13"/>
<path d="M34.5169 56.3754H38.2128L42.1163 65.8989H42.2824L46.1859 56.3754H49.8818V70.5499H46.9749V61.324H46.8573L43.1891 70.4807H41.2096L37.5414 61.2894H37.4238V70.5499H34.5169V56.3754ZM57.1404 70.7575C56.0468 70.7575 55.1056 70.536 54.3165 70.0931C53.5321 69.6455 52.9277 69.0134 52.5032 68.1967C52.0787 67.3754 51.8665 66.4041 51.8665 65.2829C51.8665 64.1893 52.0787 63.2296 52.5032 62.4037C52.9277 61.5778 53.5252 60.9341 54.2958 60.4727C55.071 60.0113 55.9799 59.7806 57.0227 59.7806C57.7241 59.7806 58.377 59.8936 58.9814 60.1197C59.5905 60.3412 60.1211 60.6757 60.5733 61.1233C61.0301 61.5708 61.3853 62.1338 61.6391 62.812C61.8929 63.4857 62.0198 64.2747 62.0198 65.1791V65.9888H53.0431V64.1616H59.2444C59.2444 63.7372 59.1521 63.3611 58.9676 63.0335C58.783 62.7059 58.5269 62.4498 58.1993 62.2653C57.8763 62.0761 57.5003 61.9815 57.0712 61.9815C56.6236 61.9815 56.2268 62.0853 55.8807 62.2929C55.5393 62.496 55.2717 62.7705 55.0779 63.1166C54.8841 63.458 54.7849 63.8387 54.7803 64.2585V65.9958C54.7803 66.5218 54.8772 66.9762 55.071 67.3592C55.2694 67.7422 55.5485 68.0375 55.9084 68.2451C56.2683 68.4528 56.6951 68.5566 57.1888 68.5566C57.5164 68.5566 57.8163 68.5104 58.0886 68.4182C58.3608 68.3259 58.5938 68.1874 58.7876 68.0029C58.9814 67.8183 59.129 67.5922 59.2306 67.3246L61.9575 67.5046C61.8191 68.1598 61.5353 68.7319 61.1062 69.221C60.6817 69.7055 60.1326 70.0838 59.459 70.3561C58.7899 70.6237 58.0171 70.7575 57.1404 70.7575ZM63.9439 70.5499V59.919H66.7538V61.7946H66.8784C67.0999 61.1717 67.469 60.6803 67.9858 60.3204C68.5026 59.9605 69.1209 59.7806 69.8407 59.7806C70.5697 59.7806 71.1903 59.9628 71.7025 60.3273C72.2146 60.6872 72.5561 61.1763 72.7268 61.7946H72.8375C73.0544 61.1856 73.4466 60.6988 74.0141 60.3343C74.5863 59.9651 75.2622 59.7806 76.042 59.7806C77.0341 59.7806 77.8392 60.0966 78.4575 60.7288C79.0804 61.3563 79.3919 62.2468 79.3919 63.4003V70.5499H76.4504V63.9817C76.4504 63.3911 76.2935 62.9481 75.9797 62.6528C75.666 62.3575 75.2738 62.2099 74.8031 62.2099C74.2679 62.2099 73.8503 62.3806 73.5504 62.7221C73.2505 63.0589 73.1005 63.5041 73.1005 64.0578V70.5499H70.2421V63.9194C70.2421 63.398 70.0921 62.9827 69.7922 62.6736C69.4969 62.3645 69.107 62.2099 68.6226 62.2099C68.295 62.2099 67.9997 62.2929 67.7366 62.459C67.4783 62.6205 67.2729 62.8489 67.1207 63.1442C66.9684 63.4349 66.8923 63.7764 66.8923 64.1686V70.5499H63.9439ZM81.7762 70.5499V56.3754H84.7246V61.7046H84.8146C84.9438 61.4186 85.1306 61.1279 85.3752 60.8326C85.6243 60.5327 85.9473 60.2835 86.3441 60.0851C86.7456 59.8821 87.2439 59.7806 87.8391 59.7806C88.6143 59.7806 89.3295 59.9836 89.9847 60.3896C90.6399 60.7911 91.1636 61.3978 91.5558 62.2099C91.948 63.0174 92.1441 64.0301 92.1441 65.2483C92.1441 66.4341 91.9526 67.4354 91.5696 68.252C91.1912 69.0641 90.6745 69.6801 90.0193 70.1C89.3687 70.5153 88.6397 70.7229 87.8322 70.7229C87.26 70.7229 86.7733 70.6283 86.3718 70.4391C85.975 70.2499 85.6497 70.0123 85.3959 69.7262C85.1422 69.4356 84.9484 69.1426 84.8146 68.8473H84.6831V70.5499H81.7762ZM84.6623 65.2344C84.6623 65.8666 84.75 66.4179 84.9253 66.8886C85.1006 67.3592 85.3544 67.726 85.6866 67.989C86.0188 68.2474 86.4226 68.3766 86.8978 68.3766C87.3777 68.3766 87.7837 68.2451 88.116 67.9821C88.4482 67.7145 88.6996 67.3454 88.8704 66.8747C89.0457 66.3995 89.1334 65.8527 89.1334 65.2344C89.1334 64.6208 89.048 64.0809 88.8773 63.6149C88.7066 63.1489 88.4551 62.7843 88.1229 62.5213C87.7907 62.2583 87.3823 62.1268 86.8978 62.1268C86.418 62.1268 86.0119 62.2537 85.6797 62.5075C85.3521 62.7613 85.1006 63.1212 84.9253 63.5872C84.75 64.0532 84.6623 64.6023 84.6623 65.2344ZM98.9562 70.7575C97.8627 70.7575 96.9214 70.536 96.1324 70.0931C95.348 69.6455 94.7435 69.0134 94.319 68.1967C93.8945 67.3754 93.6823 66.4041 93.6823 65.2829C93.6823 64.1893 93.8945 63.2296 94.319 62.4037C94.7435 61.5778 95.3411 60.9341 96.1116 60.4727C96.8868 60.0113 97.7958 59.7806 98.8385 59.7806C99.5399 59.7806 100.193 59.8936 100.797 60.1197C101.406 60.3412 101.937 60.6757 102.389 61.1233C102.846 61.5708 103.201 62.1338 103.455 62.812C103.709 63.4857 103.836 64.2747 103.836 65.1791V65.9888H94.8589V64.1616H101.06C101.06 63.7372 100.968 63.3611 100.783 63.0335C100.599 62.7059 100.343 62.4498 100.015 62.2653C99.6921 62.0761 99.3161 61.9815 98.887 61.9815C98.4394 61.9815 98.0426 62.0853 97.6965 62.2929C97.3551 62.496 97.0875 62.7705 96.8937 63.1166C96.6999 63.458 96.6007 63.8387 96.5961 64.2585V65.9958C96.5961 66.5218 96.693 66.9762 96.8868 67.3592C97.0852 67.7422 97.3643 68.0375 97.7242 68.2451C98.0841 68.4528 98.5109 68.5566 99.0046 68.5566C99.3322 68.5566 99.6322 68.5104 99.9044 68.4182C100.177 68.3259 100.41 68.1874 100.603 68.0029C100.797 67.8183 100.945 67.5922 101.046 67.3246L103.773 67.5046C103.635 68.1598 103.351 68.7319 102.922 69.221C102.498 69.7055 101.948 70.0838 101.275 70.3561C100.606 70.6237 99.8329 70.7575 98.9562 70.7575ZM105.76 70.5499V59.919H108.618V61.7739H108.729C108.923 61.114 109.248 60.6157 109.705 60.2789C110.162 59.9374 110.688 59.7667 111.283 59.7667C111.43 59.7667 111.59 59.7759 111.76 59.7944C111.931 59.8129 112.081 59.8382 112.21 59.8705V62.4867C112.072 62.4452 111.88 62.4083 111.636 62.376C111.391 62.3437 111.167 62.3275 110.964 62.3275C110.531 62.3275 110.143 62.4221 109.802 62.6113C109.465 62.7959 109.197 63.0543 108.999 63.3865C108.805 63.7187 108.708 64.1017 108.708 64.5354V70.5499H105.76ZM122.58 62.9504L119.881 63.1166C119.834 62.8859 119.735 62.6782 119.583 62.4937C119.431 62.3045 119.23 62.1545 118.981 62.0438C118.736 61.9284 118.443 61.8707 118.102 61.8707C117.645 61.8707 117.26 61.9676 116.946 62.1614C116.632 62.3506 116.475 62.6044 116.475 62.9228C116.475 63.1765 116.577 63.3911 116.78 63.5664C116.983 63.7418 117.331 63.8825 117.825 63.9886L119.749 64.3762C120.783 64.5885 121.553 64.9299 122.061 65.4005C122.568 65.8712 122.822 66.4895 122.822 67.2554C122.822 67.9521 122.617 68.5635 122.206 69.0895C121.8 69.6155 121.242 70.0262 120.531 70.3215C119.825 70.6122 119.011 70.7575 118.088 70.7575C116.681 70.7575 115.559 70.4645 114.724 69.8785C113.894 69.2879 113.407 68.4851 113.264 67.47L116.164 67.3177C116.252 67.7468 116.464 68.0744 116.801 68.3005C117.137 68.522 117.569 68.6327 118.095 68.6327C118.612 68.6327 119.027 68.5335 119.341 68.3351C119.659 68.1321 119.821 67.8714 119.825 67.553C119.821 67.2854 119.708 67.0662 119.486 66.8955C119.265 66.7202 118.923 66.5864 118.462 66.4941L116.621 66.1273C115.583 65.9196 114.81 65.5597 114.302 65.0476C113.799 64.5354 113.548 63.8825 113.548 63.0889C113.548 62.406 113.732 61.8177 114.101 61.324C114.475 60.8303 114.999 60.4496 115.672 60.182C116.351 59.9144 117.144 59.7806 118.053 59.7806C119.396 59.7806 120.453 60.0643 121.223 60.6319C121.998 61.1994 122.451 61.9723 122.58 62.9504ZM127.627 64.4039V70.5499H124.679V56.3754H127.544V61.7946H127.669C127.909 61.1671 128.296 60.6757 128.831 60.3204C129.367 59.9605 130.038 59.7806 130.845 59.7806C131.584 59.7806 132.227 59.9421 132.776 60.265C133.33 60.5834 133.759 61.0425 134.064 61.6424C134.373 62.2376 134.525 62.9504 134.521 63.781V70.5499H131.572V64.307C131.577 63.6518 131.411 63.1419 131.074 62.7774C130.742 62.4129 130.276 62.2306 129.676 62.2306C129.274 62.2306 128.919 62.316 128.61 62.4867C128.305 62.6575 128.065 62.9066 127.89 63.2342C127.719 63.5572 127.632 63.9471 127.627 64.4039ZM136.841 70.5499V59.919H139.789V70.5499H136.841ZM138.322 58.5486C137.884 58.5486 137.508 58.4033 137.194 58.1126C136.885 57.8173 136.73 57.4643 136.73 57.0536C136.73 56.6476 136.885 56.2992 137.194 56.0085C137.508 55.7132 137.884 55.5656 138.322 55.5656C138.76 55.5656 139.134 55.7132 139.443 56.0085C139.757 56.2992 139.914 56.6476 139.914 57.0536C139.914 57.4643 139.757 57.8173 139.443 58.1126C139.134 58.4033 138.76 58.5486 138.322 58.5486ZM142.151 74.5364V59.919H145.058V61.7046H145.189C145.319 61.4186 145.506 61.1279 145.75 60.8326C145.999 60.5327 146.322 60.2835 146.719 60.0851C147.12 59.8821 147.619 59.7806 148.214 59.7806C148.989 59.7806 149.704 59.9836 150.36 60.3896C151.015 60.7911 151.538 61.3978 151.931 62.2099C152.323 63.0174 152.519 64.0301 152.519 65.2483C152.519 66.4341 152.327 67.4354 151.944 68.252C151.566 69.0641 151.049 69.6801 150.394 70.1C149.744 70.5153 149.015 70.7229 148.207 70.7229C147.635 70.7229 147.148 70.6283 146.747 70.4391C146.35 70.2499 146.025 70.0123 145.771 69.7262C145.517 69.4356 145.323 69.1426 145.189 68.8473H145.099V74.5364H142.151ZM145.037 65.2344C145.037 65.8666 145.125 66.4179 145.3 66.8886C145.476 67.3592 145.729 67.726 146.062 67.989C146.394 68.2474 146.797 68.3766 147.273 68.3766C147.753 68.3766 148.159 68.2451 148.491 67.9821C148.823 67.7145 149.075 67.3454 149.245 66.8747C149.421 66.3995 149.508 65.8527 149.508 65.2344C149.508 64.6208 149.423 64.0809 149.252 63.6149C149.081 63.1489 148.83 62.7843 148.498 62.5213C148.166 62.2583 147.757 62.1268 147.273 62.1268C146.793 62.1268 146.387 62.2537 146.055 62.5075C145.727 62.7613 145.476 63.1212 145.3 63.5872C145.125 64.0532 145.037 64.6023 145.037 65.2344ZM40.5763 88.4626C40.5763 90.0083 40.2833 91.3234 39.6974 92.4077C39.116 93.492 38.3224 94.3202 37.3165 94.8924C36.3152 95.4599 35.1894 95.7437 33.939 95.7437C32.6793 95.7437 31.5489 95.4576 30.5476 94.8854C29.5463 94.3133 28.755 93.4851 28.1736 92.4007C27.5923 91.3164 27.3016 90.0037 27.3016 88.4626C27.3016 86.9169 27.5923 85.6019 28.1736 84.5176C28.755 83.4332 29.5463 82.6073 30.5476 82.0398C31.5489 81.4676 32.6793 81.1816 33.939 81.1816C35.1894 81.1816 36.3152 81.4676 37.3165 82.0398C38.3224 82.6073 39.116 83.4332 39.6974 84.5176C40.2833 85.6019 40.5763 86.9169 40.5763 88.4626ZM37.538 88.4626C37.538 87.4614 37.388 86.617 37.0881 85.9295C36.7928 85.242 36.3752 84.7206 35.8354 84.3653C35.2955 84.01 34.6634 83.8324 33.939 83.8324C33.2145 83.8324 32.5824 84.01 32.0426 84.3653C31.5027 84.7206 31.0828 85.242 30.7829 85.9295C30.4876 86.617 30.34 87.4614 30.34 88.4626C30.34 89.4639 30.4876 90.3083 30.7829 90.9958C31.0828 91.6833 31.5027 92.2046 32.0426 92.5599C32.5824 92.9152 33.2145 93.0929 33.939 93.0929C34.6634 93.0929 35.2955 92.9152 35.8354 92.5599C36.3752 92.2046 36.7928 91.6833 37.0881 90.9958C37.388 90.3083 37.538 89.4639 37.538 88.4626ZM42.7409 95.5499V84.919H45.5994V86.7739H45.7101C45.9039 86.114 46.2292 85.6157 46.686 85.2789C47.1428 84.9374 47.6688 84.7667 48.264 84.7667C48.4117 84.7667 48.5708 84.7759 48.7416 84.7944C48.9123 84.8129 49.0622 84.8382 49.1914 84.8705V87.4867C49.053 87.4452 48.8615 87.4083 48.617 87.376C48.3724 87.3437 48.1486 87.3275 47.9456 87.3275C47.5119 87.3275 47.1243 87.4221 46.7829 87.6113C46.446 87.7959 46.1784 88.0543 45.98 88.3865C45.7862 88.7187 45.6893 89.1017 45.6893 89.5354V95.5499H42.7409ZM55.0104 99.7579C54.0553 99.7579 53.2363 99.6264 52.5534 99.3634C51.8751 99.105 51.3353 98.752 50.9338 98.3045C50.5324 97.8569 50.2717 97.354 50.1517 96.7957L52.8787 96.4289C52.9617 96.6411 53.0932 96.8395 53.2732 97.0241C53.4531 97.2086 53.6908 97.3563 53.9861 97.467C54.286 97.5824 54.6505 97.6401 55.0796 97.6401C55.721 97.6401 56.2493 97.4832 56.6645 97.1694C57.0844 96.8603 57.2944 96.3412 57.2944 95.6122V93.6673H57.1698C57.0406 93.9626 56.8468 94.2418 56.5884 94.5048C56.33 94.7678 55.9978 94.9823 55.5918 95.1484C55.1857 95.3145 54.7012 95.3976 54.1383 95.3976C53.3401 95.3976 52.6134 95.213 51.9582 94.8439C51.3076 94.4702 50.7885 93.9003 50.4009 93.1344C50.0179 92.3638 49.8264 91.3903 49.8264 90.2137C49.8264 89.0094 50.0225 88.0035 50.4147 87.196C50.8069 86.3886 51.3283 85.7841 51.9789 85.3827C52.6341 84.9813 53.3516 84.7806 54.1314 84.7806C54.7266 84.7806 55.2249 84.8821 55.6264 85.0851C56.0278 85.2835 56.3508 85.5327 56.5953 85.8326C56.8445 86.1279 57.036 86.4186 57.1698 86.7046H57.2805V84.919H60.2082V95.6537C60.2082 96.558 59.9867 97.3148 59.5437 97.9238C59.1008 98.5329 58.4871 98.9897 57.7027 99.2942C56.9229 99.6033 56.0255 99.7579 55.0104 99.7579ZM55.0727 93.1828C55.5479 93.1828 55.9494 93.0652 56.277 92.8299C56.6092 92.5899 56.8629 92.2485 57.0383 91.8055C57.2182 91.358 57.3082 90.8227 57.3082 90.1998C57.3082 89.5769 57.2205 89.0371 57.0452 88.5803C56.8699 88.1189 56.6161 87.7613 56.2839 87.5075C55.9517 87.2537 55.5479 87.1268 55.0727 87.1268C54.5882 87.1268 54.1798 87.2583 53.8476 87.5213C53.5154 87.7797 53.2639 88.1396 53.0932 88.601C52.9225 89.0624 52.8371 89.5954 52.8371 90.1998C52.8371 90.8135 52.9225 91.3441 53.0932 91.7917C53.2686 92.2346 53.52 92.5784 53.8476 92.8229C54.1798 93.0629 54.5882 93.1828 55.0727 93.1828ZM65.5859 95.7506C64.9076 95.7506 64.3032 95.6329 63.7726 95.3976C63.2419 95.1577 62.8221 94.8047 62.5129 94.3387C62.2084 93.868 62.0561 93.282 62.0561 92.5807C62.0561 91.9901 62.1645 91.4941 62.3814 91.0926C62.5983 90.6912 62.8936 90.3682 63.2673 90.1237C63.6411 89.8791 64.0655 89.6946 64.5408 89.57C65.0207 89.4454 65.5236 89.3577 66.0496 89.307C66.6679 89.2424 67.1662 89.1824 67.5446 89.127C67.9229 89.0671 68.1975 88.9794 68.3682 88.864C68.5389 88.7487 68.6243 88.578 68.6243 88.3519V88.3103C68.6243 87.872 68.4859 87.5329 68.209 87.2929C67.9368 87.053 67.5492 86.933 67.0463 86.933C66.5156 86.933 66.0934 87.0507 65.7797 87.286C65.4659 87.5167 65.2583 87.8074 65.1568 88.1581L62.4299 87.9366C62.5683 87.2906 62.8405 86.7323 63.2465 86.2617C63.6526 85.7864 64.1763 85.4219 64.8176 85.1681C65.4636 84.9098 66.2111 84.7806 67.0601 84.7806C67.6507 84.7806 68.2159 84.8498 68.7558 84.9882C69.3002 85.1266 69.7824 85.3412 70.2023 85.6319C70.6268 85.9226 70.9613 86.2963 71.2059 86.7531C71.4504 87.2053 71.5727 87.7474 71.5727 88.3796V95.5499H68.7765V94.0757H68.6935C68.5228 94.4079 68.2944 94.7009 68.0083 94.9546C67.7222 95.2038 67.3785 95.3999 66.977 95.5429C66.5756 95.6814 66.1119 95.7506 65.5859 95.7506ZM66.4303 93.7158C66.864 93.7158 67.247 93.6304 67.5792 93.4597C67.9114 93.2843 68.1721 93.049 68.3613 92.7537C68.5505 92.4584 68.645 92.1239 68.645 91.7502V90.622C68.5528 90.682 68.4259 90.7374 68.2644 90.7881C68.1075 90.8343 67.9299 90.8781 67.7314 90.9196C67.533 90.9565 67.3346 90.9911 67.1362 91.0234C66.9378 91.0511 66.7579 91.0765 66.5964 91.0996C66.2503 91.1503 65.9481 91.2311 65.6897 91.3418C65.4313 91.4525 65.2306 91.6025 65.0876 91.7917C64.9445 91.9762 64.873 92.207 64.873 92.4838C64.873 92.8852 65.0184 93.1921 65.309 93.4043C65.6044 93.6119 65.9781 93.7158 66.4303 93.7158ZM76.8085 89.4039V95.5499H73.8601V84.919H76.6701V86.7946H76.7947C77.03 86.1763 77.4245 85.6872 77.9782 85.3273C78.5319 84.9628 79.2033 84.7806 79.9923 84.7806C80.7305 84.7806 81.3742 84.9421 81.9233 85.265C82.4723 85.588 82.8991 86.0494 83.2037 86.6493C83.5082 87.2445 83.6605 87.9551 83.6605 88.781V95.5499H80.7121V89.307C80.7167 88.6564 80.5506 88.1489 80.2137 87.7843C79.8769 87.4152 79.4132 87.2306 78.8226 87.2306C78.4258 87.2306 78.0751 87.316 77.7706 87.4867C77.4707 87.6575 77.2353 87.9066 77.0646 88.2342C76.8985 88.5572 76.8131 88.9471 76.8085 89.4039ZM85.9842 95.5499V84.919H88.9327V95.5499H85.9842ZM87.4654 83.5486C87.027 83.5486 86.651 83.4033 86.3372 83.1126C86.0281 82.8173 85.8735 82.4643 85.8735 82.0536C85.8735 81.6476 86.0281 81.2992 86.3372 81.0085C86.651 80.7132 87.027 80.5656 87.4654 80.5656C87.9037 80.5656 88.2774 80.7132 88.5866 81.0085C88.9004 81.2992 89.0572 81.6476 89.0572 82.0536C89.0572 82.4643 88.9004 82.8173 88.5866 83.1126C88.2774 83.4033 87.9037 83.5486 87.4654 83.5486ZM100.14 87.9504L97.4405 88.1166C97.3943 87.8859 97.2951 87.6782 97.1429 87.4937C96.9906 87.3045 96.7899 87.1545 96.5407 87.0438C96.2962 86.9284 96.0032 86.8707 95.6617 86.8707C95.2049 86.8707 94.8197 86.9676 94.5059 87.1614C94.1921 87.3506 94.0353 87.6044 94.0353 87.9228C94.0353 88.1765 94.1368 88.3911 94.3398 88.5664C94.5428 88.7418 94.8912 88.8825 95.3849 88.9886L97.309 89.3762C98.3425 89.5885 99.1131 89.9299 99.6206 90.4005C100.128 90.8712 100.382 91.4895 100.382 92.2554C100.382 92.9521 100.177 93.5635 99.766 94.0895C99.3599 94.6155 98.8016 95.0262 98.091 95.3215C97.3851 95.6122 96.5707 95.7575 95.6479 95.7575C94.2406 95.7575 93.1194 95.4645 92.2842 94.8785C91.4537 94.2879 90.9669 93.4851 90.8238 92.47L93.7238 92.3177C93.8115 92.7468 94.0237 93.0744 94.3606 93.3005C94.6974 93.522 95.1288 93.6327 95.6548 93.6327C96.1716 93.6327 96.5869 93.5335 96.9006 93.3351C97.219 93.1321 97.3805 92.8714 97.3851 92.553C97.3805 92.2854 97.2674 92.0662 97.046 91.8955C96.8245 91.7202 96.483 91.5864 96.0216 91.4941L94.1806 91.1273C93.1424 90.9196 92.3696 90.5597 91.862 90.0476C91.3591 89.5354 91.1076 88.8825 91.1076 88.0889C91.1076 87.406 91.2922 86.8177 91.6613 86.324C92.035 85.8303 92.5587 85.4496 93.2324 85.182C93.9107 84.9144 94.7043 84.7806 95.6133 84.7806C96.956 84.7806 98.0126 85.0643 98.7832 85.6319C99.5583 86.1994 100.011 86.9723 100.14 87.9504ZM105.27 95.7506C104.592 95.7506 103.987 95.6329 103.457 95.3976C102.926 95.1577 102.506 94.8047 102.197 94.3387C101.892 93.868 101.74 93.282 101.74 92.5807C101.74 91.9901 101.849 91.4941 102.066 91.0926C102.282 90.6912 102.578 90.3682 102.951 90.1237C103.325 89.8791 103.75 89.6946 104.225 89.57C104.705 89.4454 105.208 89.3577 105.734 89.307C106.352 89.2424 106.85 89.1824 107.229 89.127C107.607 89.0671 107.882 88.9794 108.052 88.864C108.223 88.7487 108.308 88.578 108.308 88.3519V88.3103C108.308 87.872 108.17 87.5329 107.893 87.2929C107.621 87.053 107.233 86.933 106.73 86.933C106.2 86.933 105.778 87.0507 105.464 87.286C105.15 87.5167 104.942 87.8074 104.841 88.1581L102.114 87.9366C102.252 87.2906 102.525 86.7323 102.931 86.2617C103.337 85.7864 103.86 85.4219 104.502 85.1681C105.148 84.9098 105.895 84.7806 106.744 84.7806C107.335 84.7806 107.9 84.8498 108.44 84.9882C108.984 85.1266 109.467 85.3412 109.886 85.6319C110.311 85.9226 110.645 86.2963 110.89 86.7531C111.135 87.2053 111.257 87.7474 111.257 88.3796V95.5499H108.461V94.0757H108.378C108.207 94.4079 107.978 94.7009 107.692 94.9546C107.406 95.2038 107.063 95.3999 106.661 95.5429C106.26 95.6814 105.796 95.7506 105.27 95.7506ZM106.114 93.7158C106.548 93.7158 106.931 93.6304 107.263 93.4597C107.596 93.2843 107.856 93.049 108.045 92.7537C108.235 92.4584 108.329 92.1239 108.329 91.7502V90.622C108.237 90.682 108.11 90.7374 107.948 90.7881C107.792 90.8343 107.614 90.8781 107.416 90.9196C107.217 90.9565 107.019 90.9911 106.82 91.0234C106.622 91.0511 106.442 91.0765 106.281 91.0996C105.934 91.1503 105.632 91.2311 105.374 91.3418C105.115 91.4525 104.915 91.6025 104.772 91.7917C104.629 91.9762 104.557 92.207 104.557 92.4838C104.557 92.8852 104.702 93.1921 104.993 93.4043C105.288 93.6119 105.662 93.7158 106.114 93.7158ZM119.199 84.919V87.1338H112.797V84.919H119.199ZM114.25 82.372H117.199V92.2831C117.199 92.5553 117.24 92.7676 117.323 92.9198C117.406 93.0675 117.522 93.1713 117.669 93.2313C117.822 93.2913 117.997 93.3213 118.195 93.3213C118.334 93.3213 118.472 93.3097 118.611 93.2867C118.749 93.259 118.855 93.2382 118.929 93.2244L119.393 95.4184C119.245 95.4645 119.037 95.5176 118.77 95.5776C118.502 95.6421 118.177 95.6814 117.794 95.6952C117.083 95.7229 116.46 95.6283 115.925 95.4114C115.394 95.1946 114.982 94.8578 114.686 94.401C114.391 93.9442 114.246 93.3674 114.25 92.6707V82.372ZM121.119 95.5499V84.919H124.068V95.5499H121.119ZM122.601 83.5486C122.162 83.5486 121.786 83.4033 121.472 83.1126C121.163 82.8173 121.009 82.4643 121.009 82.0536C121.009 81.6476 121.163 81.2992 121.472 81.0085C121.786 80.7132 122.162 80.5656 122.601 80.5656C123.039 80.5656 123.413 80.7132 123.722 81.0085C124.036 81.2992 124.192 81.6476 124.192 82.0536C124.192 82.4643 124.036 82.8173 123.722 83.1126C123.413 83.4033 123.039 83.5486 122.601 83.5486ZM131.233 95.7575C130.158 95.7575 129.228 95.5291 128.444 95.0723C127.664 94.6109 127.062 93.9695 126.637 93.1482C126.213 92.3223 126.001 91.3649 126.001 90.276C126.001 89.1778 126.213 88.2181 126.637 87.3968C127.062 86.5708 127.664 85.9295 128.444 85.4727C129.228 85.0113 130.158 84.7806 131.233 84.7806C132.308 84.7806 133.235 85.0113 134.015 85.4727C134.8 85.9295 135.404 86.5708 135.829 87.3968C136.253 88.2181 136.465 89.1778 136.465 90.276C136.465 91.3649 136.253 92.3223 135.829 93.1482C135.404 93.9695 134.8 94.6109 134.015 95.0723C133.235 95.5291 132.308 95.7575 131.233 95.7575ZM131.247 93.4735C131.736 93.4735 132.144 93.3351 132.472 93.0583C132.799 92.7768 133.046 92.3938 133.212 91.9093C133.383 91.4249 133.468 90.8735 133.468 90.2552C133.468 89.6369 133.383 89.0855 133.212 88.601C133.046 88.1166 132.799 87.7336 132.472 87.4521C132.144 87.1707 131.736 87.0299 131.247 87.0299C130.753 87.0299 130.338 87.1707 130.001 87.4521C129.669 87.7336 129.417 88.1166 129.247 88.601C129.08 89.0855 128.997 89.6369 128.997 90.2552C128.997 90.8735 129.08 91.4249 129.247 91.9093C129.417 92.3938 129.669 92.7768 130.001 93.0583C130.338 93.3351 130.753 93.4735 131.247 93.4735ZM141.331 89.4039V95.5499H138.382V84.919H141.192V86.7946H141.317C141.552 86.1763 141.947 85.6872 142.501 85.3273C143.054 84.9628 143.726 84.7806 144.515 84.7806C145.253 84.7806 145.897 84.9421 146.446 85.265C146.995 85.588 147.422 86.0494 147.726 86.6493C148.031 87.2445 148.183 87.9551 148.183 88.781V95.5499H145.234V89.307C145.239 88.6564 145.073 88.1489 144.736 87.7843C144.399 87.4152 143.936 87.2306 143.345 87.2306C142.948 87.2306 142.597 87.316 142.293 87.4867C141.993 87.6575 141.758 87.9066 141.587 88.2342C141.421 88.5572 141.336 88.9471 141.331 89.4039ZM159.352 87.9504L156.653 88.1166C156.606 87.8859 156.507 87.6782 156.355 87.4937C156.203 87.3045 156.002 87.1545 155.753 87.0438C155.508 86.9284 155.215 86.8707 154.874 86.8707C154.417 86.8707 154.032 86.9676 153.718 87.1614C153.404 87.3506 153.247 87.6044 153.247 87.9228C153.247 88.1765 153.349 88.3911 153.552 88.5664C153.755 88.7418 154.103 88.8825 154.597 88.9886L156.521 89.3762C157.555 89.5885 158.325 89.9299 158.833 90.4005C159.34 90.8712 159.594 91.4895 159.594 92.2554C159.594 92.9521 159.389 93.5635 158.978 94.0895C158.572 94.6155 158.014 95.0262 157.303 95.3215C156.597 95.6122 155.783 95.7575 154.86 95.7575C153.453 95.7575 152.331 95.4645 151.496 94.8785C150.666 94.2879 150.179 93.4851 150.036 92.47L152.936 92.3177C153.024 92.7468 153.236 93.0744 153.573 93.3005C153.91 93.522 154.341 93.6327 154.867 93.6327C155.384 93.6327 155.799 93.5335 156.113 93.3351C156.431 93.1321 156.593 92.8714 156.597 92.553C156.593 92.2854 156.48 92.0662 156.258 91.8955C156.037 91.7202 155.695 91.5864 155.234 91.4941L153.393 91.1273C152.355 90.9196 151.582 90.5597 151.074 90.0476C150.571 89.5354 150.32 88.8825 150.32 88.0889C150.32 87.406 150.504 86.8177 150.873 86.324C151.247 85.8303 151.771 85.4496 152.445 85.182C153.123 84.9144 153.916 84.7806 154.825 84.7806C156.168 84.7806 157.225 85.0643 157.995 85.6319C158.77 86.1994 159.223 86.9723 159.352 87.9504Z" fill="#4D4D4D"/>
</svg>
