<svg width="186" height="102" viewBox="0 0 186 102" fill="none" xmlns="http://www.w3.org/2000/svg">
<path d="M115.666 26.8835C115.666 33.8032 110.056 39.4127 103.137 39.4127L84.3428 39.4127C82.4207 39.4127 80.8625 37.8545 80.8625 35.9324L80.8625 12.266C80.8625 8.42172 83.9789 5.30531 87.8232 5.30531L112.186 5.30532C114.108 5.30532 115.666 6.86352 115.666 8.78566L115.666 26.8835Z" fill="#E8F5E9"/>
<path d="M90.1283 16.8912C89.9607 16.8912 89.805 16.8451 89.6668 16.771V16.773C89.6668 17.0367 89.5643 17.2843 89.3783 17.4698C89.1924 17.6558 88.9449 17.7583 88.6815 17.7583C88.5115 17.7583 88.3539 17.711 88.2141 17.6349C88.2 17.8762 88.1036 18.1016 87.9316 18.2739C87.7456 18.4598 87.4982 18.5623 87.2346 18.5623C86.7109 18.5623 86.2857 18.1507 86.2551 17.6348C86.093 17.7223 85.9099 17.7683 85.7209 17.7561C85.2058 17.7223 84.8024 17.2773 84.8024 16.7426V12.311L84.2978 13.1852C84.1056 13.5196 83.7458 13.7272 83.3584 13.7272C83.1697 13.7272 82.9832 13.6777 82.8181 13.5831C82.6124 13.4639 82.4653 13.2725 82.4042 13.0435C82.3427 12.8144 82.3745 12.5748 82.4934 12.3695C82.4935 12.3695 84.1444 9.5106 84.2452 9.33499C84.2571 9.30859 84.2912 9.23201 84.3203 9.16674C84.348 9.10442 84.3718 9.04046 84.3946 8.97618C84.8924 7.57062 86.1252 6.69751 87.6119 6.69751C89.5426 6.69751 91.1133 8.40073 91.1133 10.4943L91.1135 15.9058C91.1135 16.1692 91.0112 16.4166 90.8254 16.6028C90.6394 16.7887 90.3919 16.8912 90.1282 16.8912L90.1283 16.8912ZM87.612 7.22106C86.3344 7.22106 85.3162 7.94265 84.888 9.15127C84.8606 9.22801 84.8321 9.30476 84.7988 9.37954C84.7022 9.59618 84.7022 9.59618 84.675 9.62733L84.6714 9.62422C84.5366 9.87857 84.1361 10.5721 82.9467 12.6315C82.8978 12.716 82.8849 12.814 82.9098 12.9078C82.935 13.0017 82.9956 13.0807 83.0794 13.1291C83.3395 13.2785 83.6957 13.182 83.8439 12.9238L84.8375 11.2035C84.8969 11.101 85.0169 11.0506 85.1321 11.0818C85.2465 11.1124 85.3261 11.2162 85.3261 11.3346V16.7428C85.3261 16.998 85.5186 17.2182 85.7552 17.2338C85.8917 17.241 86.0189 17.1952 86.1145 17.0998C86.2015 17.0129 86.2493 16.8971 86.2493 16.7733V13.2363C86.2493 13.0916 86.3666 12.9744 86.5112 12.9744C86.6559 12.9744 86.7731 13.0915 86.7731 13.2363L86.773 17.5772C86.773 17.8317 86.9801 18.0389 87.2346 18.0389C87.3583 18.0389 87.4744 17.991 87.5615 17.9041C87.6484 17.817 87.6963 17.7009 87.6963 17.5772V13.2363C87.6963 13.0916 87.8133 12.9744 87.9581 12.9744C88.1028 12.9744 88.22 13.0915 88.22 13.2363L88.2199 16.7326V16.7733C88.2199 17.0276 88.427 17.2347 88.6817 17.2347C88.8052 17.2347 88.9209 17.1867 89.0085 17.0994C89.0954 17.0127 89.1433 16.8969 89.1433 16.7731V13.2361C89.1433 13.0915 89.2604 12.9742 89.4052 12.9742C89.5499 12.9742 89.6671 13.0913 89.6671 13.2361L89.6668 15.9059C89.6668 16.1606 89.8739 16.3677 90.1283 16.3677C90.2521 16.3677 90.3678 16.3197 90.4548 16.2329C90.542 16.1457 90.5897 16.0296 90.5897 15.9059L90.5899 10.4944C90.5899 8.68969 89.254 7.22111 87.6119 7.22111L87.612 7.22106Z" fill="#103E13"/>
<path d="M79.8386 20.6523L83.6389 18.3725C84.0971 18.0973 84.6867 18.2142 84.9806 18.6388C85.0878 18.7934 85.1426 18.9737 85.1511 19.1572C85.2928 19.0832 85.4469 19.0431 85.6039 19.0431C85.6842 19.0431 85.7649 19.0531 85.8446 19.0729C86.1 19.1367 86.3151 19.2963 86.4504 19.5219C86.5859 19.7479 86.6254 20.0127 86.5616 20.2678C86.5027 20.5037 86.3592 20.7024 86.1597 20.8386C86.2992 20.921 86.4196 21.0333 86.5052 21.1763C86.6407 21.4023 86.6802 21.667 86.6165 21.9223C86.5528 22.1773 86.3932 22.3925 86.1672 22.5281L86.1659 22.5289C86.303 22.6111 86.4212 22.7223 86.5059 22.8631C86.6415 23.0891 86.681 23.354 86.6172 23.6093C86.5533 23.8645 86.3937 24.0796 86.168 24.2151L81.5278 26.9989C80.6617 27.5182 79.6605 27.6975 78.709 27.5032C77.749 27.307 76.954 26.7552 76.4706 25.9493C75.7055 24.6743 75.8202 23.1679 76.7692 22.0181C76.8127 21.9656 76.8555 21.9122 76.8943 21.8567C76.9355 21.7982 76.9835 21.7293 76.9999 21.7057C77.0982 21.5302 78.701 18.6423 78.7009 18.6426C78.8627 18.3506 79.1661 18.1852 79.479 18.1854C79.625 18.1854 79.7731 18.2213 79.9097 18.2971C80.0746 18.3892 80.2132 18.5236 80.3101 18.6854C80.5094 19.0175 80.5164 19.4331 80.3288 19.7694L79.8386 20.6523ZM79.8614 18.9546C79.8105 18.8699 79.7407 18.8023 79.6552 18.7544C79.4786 18.6567 79.2562 18.7203 79.159 18.8963C78.0121 20.9626 77.6211 21.6667 77.4702 21.9173L77.4736 21.9182C77.461 21.9601 77.461 21.9601 77.3229 22.1574C77.276 22.2242 77.225 22.2883 77.173 22.3514C76.357 23.3401 76.2622 24.5844 76.9194 25.68C77.3264 26.3586 77.9991 26.8238 78.8136 26.9901C79.637 27.1575 80.5049 27.0017 81.2581 26.5498L85.8988 23.7659C86.0048 23.7024 86.0795 23.6016 86.1094 23.482C86.1392 23.3626 86.1207 23.2385 86.0571 23.1325C85.9262 22.9144 85.642 22.8428 85.4239 22.9741L83.1346 24.3476C83.0106 24.422 82.8495 24.382 82.7753 24.2579C82.7008 24.1339 82.741 23.973 82.865 23.8986L85.1545 22.5251L85.898 22.0791C86.0039 22.0154 86.0789 21.9146 86.1087 21.7954C86.1386 21.6758 86.12 21.5515 86.0564 21.4457C85.9254 21.2274 85.6412 21.1564 85.4232 21.2873L82.3902 23.1068C82.2659 23.1814 82.1053 23.1411 82.0309 23.0171C81.9564 22.8931 81.9968 22.7323 82.1206 22.6578L85.8431 20.4247C85.949 20.3611 86.0238 20.2604 86.0536 20.1409C86.0835 20.0215 86.0649 19.8973 86.0015 19.7914C85.938 19.6856 85.8372 19.6108 85.7176 19.581C85.5974 19.5511 85.4738 19.5697 85.3681 19.633L84.679 20.0464C84.6789 20.0464 84.6789 20.0466 84.6787 20.0466H84.6786L81.6457 21.8661C81.5214 21.9409 81.3607 21.9005 81.2864 21.7764C81.2119 21.6524 81.2523 21.4915 81.3761 21.4171L84.4091 19.5976C84.5151 19.5339 84.59 19.4331 84.6198 19.3139C84.6526 19.183 84.6277 19.0492 84.55 18.937C84.4152 18.742 84.1269 18.6902 83.9083 18.8215L79.271 21.6035C79.1694 21.6642 79.0394 21.6494 78.9543 21.5673C78.869 21.485 78.8498 21.3556 78.9072 21.2521L79.8715 19.5147C79.9683 19.3411 79.9645 19.1266 79.8613 18.9547L79.8614 18.9546Z" fill="#103E13"/>
<path d="M97.9983 25.9492C97.515 26.7552 96.7202 27.3069 95.76 27.503C94.8084 27.697 93.8075 27.5181 92.9413 26.9987L88.3006 24.2148C88.0748 24.0793 87.9151 23.8642 87.8511 23.6087C87.7876 23.3537 87.8273 23.0888 87.9626 22.8631C88.0471 22.7221 88.1655 22.6109 88.3027 22.5288L88.3014 22.528C88.0756 22.3925 87.9159 22.1773 87.8523 21.9221C87.7883 21.667 87.828 21.4019 87.9634 21.176C88.0507 21.0309 88.1702 20.9174 88.3067 20.8369C88.1086 20.7006 87.9659 20.5027 87.9072 20.2678C87.8432 20.0125 87.8829 19.7476 88.0184 19.5219C88.1537 19.2961 88.369 19.1366 88.6242 19.0728C88.7039 19.0528 88.7847 19.0429 88.8648 19.0429C89.0219 19.0431 89.176 19.0829 89.3177 19.1571C89.3264 18.9736 89.381 18.7933 89.4883 18.6387C89.7823 18.2144 90.3714 18.097 90.8302 18.3724L94.6304 20.6519L94.1406 19.7696C93.9527 19.4327 93.9595 19.0172 94.1588 18.6849C94.2559 18.5232 94.3946 18.3889 94.5604 18.2959C94.6967 18.2205 94.8443 18.1847 94.9899 18.1847C95.3026 18.1849 95.6063 18.3499 95.768 18.642C96.3315 19.6573 97.3948 21.572 97.4696 21.7057C97.4855 21.7288 97.5336 21.7977 97.5747 21.8562C97.6139 21.9118 97.6562 21.965 97.7 22.0178C98.6489 23.168 98.7633 24.6743 97.9983 25.9492L97.9983 25.9492ZM97.296 22.3515C97.2438 22.2884 97.1927 22.2239 97.1461 22.1575C97.0044 21.9565 97.0008 21.9512 96.9901 21.8986C96.8245 21.6245 96.4204 20.8971 95.3097 18.896C95.2123 18.7204 94.9909 18.6563 94.8146 18.7537C94.7279 18.8022 94.6582 18.8699 94.6073 18.9547C94.5044 19.1264 94.5004 19.3409 94.5977 19.5151L95.5616 21.2519C95.6192 21.3556 95.6 21.4848 95.5149 21.5671C95.4299 21.6496 95.3 21.664 95.198 21.6034L90.5607 18.8214C90.3421 18.6904 90.054 18.7417 89.9188 18.9368C89.8411 19.049 89.8163 19.1828 89.8488 19.3135C89.8787 19.4329 89.9536 19.5336 90.0597 19.5972C90.06 19.5974 90.0602 19.5977 90.0605 19.5979L93.0926 21.4169C93.2166 21.4913 93.2568 21.6521 93.1823 21.7762C93.1078 21.9 92.9473 21.9405 92.823 21.8659L89.1005 19.6328C88.9949 19.5695 88.8706 19.5508 88.7512 19.5808C88.6315 19.6107 88.5308 19.6855 88.4673 19.7916C88.4037 19.8974 88.3854 20.0215 88.4149 20.1409C88.4447 20.2603 88.5197 20.3611 88.6256 20.4248L89.35 20.8592L92.3479 22.6579C92.4719 22.7323 92.5121 22.893 92.4376 23.0172C92.3632 23.141 92.2026 23.1813 92.0783 23.1069L89.0456 21.2874C88.8275 21.1562 88.5434 21.2273 88.4123 21.4458C88.3486 21.5517 88.3303 21.6759 88.3598 21.7953C88.3896 21.9146 88.4646 22.0153 88.5707 22.0791L89.3142 22.5252L91.6034 23.8986C91.7273 23.9731 91.7675 24.1338 91.6931 24.2579C91.6186 24.3817 91.4581 24.4224 91.3338 24.3476L89.0446 22.9742C88.939 22.9109 88.8152 22.8922 88.6951 22.9222C88.5757 22.9521 88.4747 23.0268 88.4113 23.1326C88.3478 23.2385 88.3293 23.3629 88.3588 23.4821C88.3886 23.6015 88.4636 23.7022 88.5697 23.7659L93.2104 26.5499C93.9635 27.0017 94.8319 27.1581 95.6549 26.9902C96.4692 26.8239 97.142 26.3586 97.549 25.68C98.2068 24.5842 98.1121 23.3399 97.2963 22.3515L97.296 22.3515Z" fill="#103E13"/>
<path d="M57.2673 61.3378H54.2359C54.1805 60.9456 54.0675 60.5973 53.8967 60.2927C53.726 59.9836 53.5069 59.7206 53.2392 59.5037C52.9716 59.2869 52.6625 59.1207 52.3118 59.0054C51.9657 58.89 51.5897 58.8324 51.1837 58.8324C50.45 58.8324 49.811 59.0146 49.2665 59.3791C48.722 59.739 48.2998 60.265 47.9999 60.9572C47.7 61.6447 47.5501 62.4798 47.5501 63.4626C47.5501 64.4731 47.7 65.3221 47.9999 66.0096C48.3045 66.6971 48.729 67.2162 49.2734 67.5669C49.8179 67.9175 50.4477 68.0929 51.1629 68.0929C51.5643 68.0929 51.9358 68.0398 52.2772 67.9337C52.6233 67.8275 52.9301 67.673 53.1977 67.47C53.4653 67.2623 53.6868 67.0109 53.8621 66.7156C54.0421 66.4202 54.1667 66.0834 54.2359 65.7051L57.2673 65.7189C57.1889 66.3695 56.9928 66.997 56.679 67.6015C56.3699 68.2013 55.9523 68.7388 55.4263 69.2141C54.9049 69.6847 54.282 70.0585 53.5576 70.3353C52.8378 70.6075 52.0234 70.7437 51.1144 70.7437C49.8502 70.7437 48.7197 70.4576 47.7231 69.8854C46.7311 69.3133 45.9467 68.4851 45.3699 67.4007C44.7978 66.3164 44.5117 65.0037 44.5117 63.4626C44.5117 61.9169 44.8024 60.6019 45.3837 59.5176C45.9651 58.4332 46.7541 57.6073 47.7508 57.0398C48.7474 56.4676 49.8686 56.1816 51.1144 56.1816C51.9358 56.1816 52.6971 56.2969 53.3984 56.5276C54.1044 56.7583 54.7296 57.0952 55.2741 57.5381C55.8185 57.9765 56.2615 58.514 56.6029 59.1507C56.949 59.7875 57.1705 60.5165 57.2673 61.3378ZM62.3094 56.3754V70.5499H59.361V56.3754H62.3094ZM71.4886 66.0234V59.919H74.437V70.5499H71.6062V68.6189H71.4955C71.2556 69.2418 70.8564 69.7424 70.2981 70.1208C69.7444 70.4991 69.0685 70.6883 68.2702 70.6883C67.5597 70.6883 66.9345 70.5268 66.3946 70.2038C65.8548 69.8808 65.4326 69.4217 65.128 68.8265C64.8281 68.2313 64.6759 67.5184 64.6712 66.6879V59.919H67.6196V66.1619C67.6243 66.7894 67.7927 67.2854 68.1249 67.6499C68.4571 68.0144 68.9024 68.1967 69.4607 68.1967C69.816 68.1967 70.1482 68.1159 70.4573 67.9544C70.7665 67.7883 71.0156 67.5438 71.2048 67.2208C71.3986 66.8978 71.4932 66.4987 71.4886 66.0234ZM76.8507 70.5499V56.3754H79.7991V61.7046H79.8891C80.0183 61.4186 80.2052 61.1279 80.4497 60.8326C80.6989 60.5327 81.0219 60.2835 81.4187 60.0851C81.8201 59.8821 82.3184 59.7806 82.9137 59.7806C83.6888 59.7806 84.404 59.9836 85.0592 60.3896C85.7144 60.7911 86.2381 61.3978 86.6303 62.2099C87.0225 63.0174 87.2186 64.0301 87.2186 65.2483C87.2186 66.4341 87.0271 67.4354 86.6441 68.252C86.2658 69.0641 85.749 69.6801 85.0938 70.1C84.4432 70.5153 83.7142 70.7229 82.9067 70.7229C82.3346 70.7229 81.8478 70.6283 81.4464 70.4391C81.0496 70.2499 80.7243 70.0123 80.4705 69.7262C80.2167 69.4356 80.0229 69.1426 79.8891 68.8473H79.7576V70.5499H76.8507ZM79.7368 65.2344C79.7368 65.8666 79.8245 66.4179 79.9998 66.8886C80.1752 67.3592 80.429 67.726 80.7612 67.989C81.0934 68.2474 81.4971 68.3766 81.9724 68.3766C82.4522 68.3766 82.8583 68.2451 83.1905 67.9821C83.5227 67.7145 83.7742 67.3454 83.9449 66.8747C84.1202 66.3995 84.2079 65.8527 84.2079 65.2344C84.2079 64.6208 84.1225 64.0809 83.9518 63.6149C83.7811 63.1489 83.5296 62.7843 83.1974 62.5213C82.8652 62.2583 82.4569 62.1268 81.9724 62.1268C81.4925 62.1268 81.0865 62.2537 80.7543 62.5075C80.4267 62.7613 80.1752 63.1212 79.9998 63.5872C79.8245 64.0532 79.7368 64.6023 79.7368 65.2344ZM98.0312 62.9504L95.3319 63.1166C95.2858 62.8859 95.1866 62.6782 95.0343 62.4937C94.882 62.3045 94.6813 62.1545 94.4322 62.0438C94.1876 61.9284 93.8946 61.8707 93.5532 61.8707C93.0964 61.8707 92.7111 61.9676 92.3973 62.1614C92.0836 62.3506 91.9267 62.6044 91.9267 62.9228C91.9267 63.1765 92.0282 63.3911 92.2312 63.5664C92.4343 63.7418 92.7826 63.8825 93.2763 63.9886L95.2004 64.3762C96.234 64.5885 97.0045 64.9299 97.5121 65.4005C98.0196 65.8712 98.2734 66.4895 98.2734 67.2554C98.2734 67.9521 98.0681 68.5635 97.6574 69.0895C97.2514 69.6155 96.6931 70.0262 95.9825 70.3215C95.2765 70.6122 94.4622 70.7575 93.5393 70.7575C92.132 70.7575 91.0108 70.4645 90.1757 69.8785C89.3451 69.2879 88.8583 68.4851 88.7153 67.47L91.6153 67.3177C91.7029 67.7468 91.9152 68.0744 92.252 68.3005C92.5888 68.522 93.0202 68.6327 93.5463 68.6327C94.063 68.6327 94.4783 68.5335 94.7921 68.3351C95.1104 68.1321 95.2719 67.8714 95.2765 67.553C95.2719 67.2854 95.1589 67.0662 94.9374 66.8955C94.7159 66.7202 94.3745 66.5864 93.9131 66.4941L92.0721 66.1273C91.0339 65.9196 90.261 65.5597 89.7535 65.0476C89.2505 64.5354 88.9991 63.8825 88.9991 63.0889C88.9991 62.406 89.1836 61.8177 89.5528 61.324C89.9265 60.8303 90.4502 60.4496 91.1239 60.182C91.8021 59.9144 92.5958 59.7806 93.5047 59.7806C94.8474 59.7806 95.9041 60.0643 96.6746 60.6319C97.4498 61.1994 97.902 61.9723 98.0312 62.9504ZM107.139 70.5499H103.928L108.821 56.3754H112.683L117.57 70.5499H114.358L110.808 59.6145H110.697L107.139 70.5499ZM106.939 64.9783H114.524V67.3177H106.939V64.9783ZM122.169 64.4039V70.5499H119.22V59.919H122.03V61.7946H122.155C122.39 61.1763 122.785 60.6872 123.338 60.3273C123.892 59.9628 124.563 59.7806 125.352 59.7806C126.091 59.7806 126.734 59.9421 127.283 60.265C127.832 60.588 128.259 61.0494 128.564 61.6493C128.868 62.2445 129.021 62.9551 129.021 63.781V70.5499H126.072V64.307C126.077 63.6564 125.911 63.1489 125.574 62.7843C125.237 62.4152 124.773 62.2306 124.183 62.2306C123.786 62.2306 123.435 62.316 123.131 62.4867C122.831 62.6575 122.595 62.9066 122.425 63.2342C122.259 63.5572 122.173 63.9471 122.169 64.4039ZM135.262 70.7229C134.454 70.7229 133.723 70.5153 133.068 70.1C132.417 69.6801 131.9 69.0641 131.517 68.252C131.139 67.4354 130.95 66.4341 130.95 65.2483C130.95 64.0301 131.146 63.0174 131.538 62.2099C131.93 61.3978 132.452 60.7911 133.102 60.3896C133.758 59.9836 134.475 59.7806 135.255 59.7806C135.85 59.7806 136.346 59.8821 136.743 60.0851C137.144 60.2835 137.467 60.5327 137.712 60.8326C137.961 61.1279 138.15 61.4186 138.279 61.7046H138.369V56.3754H141.311V70.5499H138.404V68.8473H138.279C138.141 69.1426 137.945 69.4356 137.691 69.7262C137.442 70.0123 137.117 70.2499 136.715 70.4391C136.318 70.6283 135.834 70.7229 135.262 70.7229ZM136.196 68.3766C136.671 68.3766 137.073 68.2474 137.4 67.989C137.733 67.726 137.986 67.3592 138.162 66.8886C138.342 66.4179 138.432 65.8666 138.432 65.2344C138.432 64.6023 138.344 64.0532 138.169 63.5872C137.993 63.1212 137.74 62.7613 137.407 62.5075C137.075 62.2537 136.671 62.1268 136.196 62.1268C135.712 62.1268 135.303 62.2583 134.971 62.5213C134.639 62.7843 134.387 63.1489 134.217 63.6149C134.046 64.0809 133.961 64.6208 133.961 65.2344C133.961 65.8527 134.046 66.3995 134.217 66.8747C134.392 67.3454 134.643 67.7145 134.971 67.9821C135.303 68.2451 135.712 68.3766 136.196 68.3766ZM68.8438 85.9572C68.7469 85.6203 68.6108 85.3227 68.4355 85.0643C68.2601 84.8013 68.0456 84.5799 67.7918 84.3999C67.5427 84.2153 67.2566 84.0746 66.9336 83.9777C66.6152 83.8808 66.2622 83.8324 65.8747 83.8324C65.1502 83.8324 64.5135 84.0123 63.9644 84.3722C63.42 84.7321 62.9955 85.2558 62.6909 85.9433C62.3864 86.6262 62.2341 87.4614 62.2341 88.4488C62.2341 89.4362 62.3841 90.276 62.684 90.9681C62.9839 91.6602 63.4084 92.1885 63.9575 92.553C64.5066 92.9129 65.1549 93.0929 65.9023 93.0929C66.5806 93.0929 67.1597 92.9729 67.6395 92.733C68.124 92.4884 68.4932 92.1447 68.7469 91.7017C69.0053 91.2588 69.1345 90.7351 69.1345 90.1306L69.7436 90.2206H66.0892V87.9643H72.0206V89.7499C72.0206 90.9958 71.7576 92.0662 71.2316 92.9614C70.7056 93.8519 69.9812 94.5394 69.0584 95.0239C68.1356 95.5037 67.0789 95.7437 65.8885 95.7437C64.5596 95.7437 63.3923 95.4507 62.3864 94.8647C61.3805 94.2741 60.5961 93.4366 60.0332 92.3523C59.4749 91.2634 59.1958 89.9714 59.1958 88.4765C59.1958 87.3275 59.3619 86.3032 59.6941 85.4035C60.0309 84.4991 60.5015 83.7332 61.106 83.1056C61.7104 82.4781 62.4141 82.0006 63.2169 81.673C64.0198 81.3454 64.8895 81.1816 65.8262 81.1816C66.6291 81.1816 67.3765 81.2992 68.0687 81.5345C68.7608 81.7653 69.3744 82.0929 69.9097 82.5173C70.4495 82.9418 70.8902 83.4471 71.2316 84.0331C71.5731 84.6145 71.7922 85.2558 71.8891 85.9572H68.8438ZM74.2164 95.5499V84.919H77.0748V86.7739H77.1855C77.3793 86.114 77.7046 85.6157 78.1614 85.2789C78.6182 84.9374 79.1442 84.7667 79.7394 84.7667C79.8871 84.7667 80.0463 84.7759 80.217 84.7944C80.3877 84.8129 80.5377 84.8382 80.6669 84.8705V87.4867C80.5285 87.4452 80.337 87.4083 80.0924 87.376C79.8479 87.3437 79.6241 87.3275 79.4211 87.3275C78.9873 87.3275 78.5998 87.4221 78.2583 87.6113C77.9215 87.7959 77.6539 88.0543 77.4555 88.3865C77.2617 88.7187 77.1648 89.1017 77.1648 89.5354V95.5499H74.2164ZM86.4997 95.7575C85.4246 95.7575 84.4948 95.5291 83.7104 95.0723C82.9307 94.6109 82.3285 93.9695 81.904 93.1482C81.4795 92.3223 81.2673 91.3649 81.2673 90.276C81.2673 89.1778 81.4795 88.2181 81.904 87.3968C82.3285 86.5708 82.9307 85.9295 83.7104 85.4727C84.4948 85.0113 85.4246 84.7806 86.4997 84.7806C87.5748 84.7806 88.5022 85.0113 89.282 85.4727C90.0664 85.9295 90.6708 86.5708 91.0953 87.3968C91.5198 88.2181 91.7321 89.1778 91.7321 90.276C91.7321 91.3649 91.5198 92.3223 91.0953 93.1482C90.6708 93.9695 90.0664 94.6109 89.282 95.0723C88.5022 95.5291 87.5748 95.7575 86.4997 95.7575ZM86.5135 93.4735C87.0026 93.4735 87.411 93.3351 87.7386 93.0583C88.0662 92.7768 88.313 92.3938 88.4791 91.9093C88.6498 91.4249 88.7352 90.8735 88.7352 90.2552C88.7352 89.6369 88.6498 89.0855 88.4791 88.601C88.313 88.1166 88.0662 87.7336 87.7386 87.4521C87.411 87.1707 87.0026 87.0299 86.5135 87.0299C86.0198 87.0299 85.6045 87.1707 85.2677 87.4521C84.9355 87.7336 84.684 88.1166 84.5133 88.601C84.3472 89.0855 84.2641 89.6369 84.2641 90.2552C84.2641 90.8735 84.3472 91.4249 84.5133 91.9093C84.684 92.3938 84.9355 92.7768 85.2677 93.0583C85.6045 93.3351 86.0198 93.4735 86.5135 93.4735ZM100.467 91.0234V84.919H103.415V95.5499H100.584V93.6189H100.473C100.234 94.2418 99.8344 94.7424 99.2761 95.1208C98.7224 95.4991 98.0464 95.6883 97.2482 95.6883C96.5376 95.6883 95.9124 95.5268 95.3726 95.2038C94.8327 94.8808 94.4105 94.4217 94.106 93.8265C93.8061 93.2313 93.6538 92.5184 93.6492 91.6879V84.919H96.5976V91.1619C96.6022 91.7894 96.7706 92.2854 97.1029 92.6499C97.4351 93.0144 97.8803 93.1967 98.4386 93.1967C98.7939 93.1967 99.1261 93.1159 99.4353 92.9544C99.7444 92.7883 99.9936 92.5438 100.183 92.2208C100.377 91.8978 100.471 91.4987 100.467 91.0234ZM105.773 99.5364V84.919H108.68V86.7046H108.812C108.941 86.4186 109.128 86.1279 109.372 85.8326C109.621 85.5327 109.944 85.2835 110.341 85.0851C110.743 84.8821 111.241 84.7806 111.836 84.7806C112.611 84.7806 113.327 84.9836 113.982 85.3896C114.637 85.7911 115.161 86.3978 115.553 87.2099C115.945 88.0174 116.141 89.0301 116.141 90.2483C116.141 91.4341 115.95 92.4354 115.567 93.252C115.188 94.0641 114.672 94.6801 114.016 95.1C113.366 95.5153 112.637 95.7229 111.829 95.7229C111.257 95.7229 110.77 95.6283 110.369 95.4391C109.972 95.2499 109.647 95.0123 109.393 94.7262C109.139 94.4356 108.946 94.1426 108.812 93.8473H108.722V99.5364H105.773ZM108.659 90.2344C108.659 90.8666 108.747 91.4179 108.922 91.8886C109.098 92.3592 109.352 92.726 109.684 92.989C110.016 93.2474 110.42 93.3766 110.895 93.3766C111.375 93.3766 111.781 93.2451 112.113 92.9821C112.445 92.7145 112.697 92.3454 112.868 91.8747C113.043 91.3995 113.131 90.8527 113.131 90.2344C113.131 89.6208 113.045 89.0809 112.874 88.6149C112.704 88.1489 112.452 87.7843 112.12 87.5213C111.788 87.2583 111.379 87.1268 110.895 87.1268C110.415 87.1268 110.009 87.2537 109.677 87.5075C109.349 87.7613 109.098 88.1212 108.922 88.5872C108.747 89.0532 108.659 89.6023 108.659 90.2344ZM126.952 87.9504L124.253 88.1166C124.207 87.8859 124.107 87.6782 123.955 87.4937C123.803 87.3045 123.602 87.1545 123.353 87.0438C123.108 86.9284 122.815 86.8707 122.474 86.8707C122.017 86.8707 121.632 86.9676 121.318 87.1614C121.004 87.3506 120.848 87.6044 120.848 87.9228C120.848 88.1765 120.949 88.3911 121.152 88.5664C121.355 88.7418 121.703 88.8825 122.197 88.9886L124.121 89.3762C125.155 89.5885 125.925 89.9299 126.433 90.4005C126.94 90.8712 127.194 91.4895 127.194 92.2554C127.194 92.9521 126.989 93.5635 126.578 94.0895C126.172 94.6155 125.614 95.0262 124.903 95.3215C124.197 95.6122 123.383 95.7575 122.46 95.7575C121.053 95.7575 119.932 95.4645 119.097 94.8785C118.266 94.2879 117.779 93.4851 117.636 92.47L120.536 92.3177C120.624 92.7468 120.836 93.0744 121.173 93.3005C121.51 93.522 121.941 93.6327 122.467 93.6327C122.984 93.6327 123.399 93.5335 123.713 93.3351C124.031 93.1321 124.193 92.8714 124.197 92.553C124.193 92.2854 124.08 92.0662 123.858 91.8955C123.637 91.7202 123.295 91.5864 122.834 91.4941L120.993 91.1273C119.955 90.9196 119.182 90.5597 118.674 90.0476C118.171 89.5354 117.92 88.8825 117.92 88.0889C117.92 87.406 118.105 86.8177 118.474 86.324C118.847 85.8303 119.371 85.4496 120.045 85.182C120.723 84.9144 121.517 84.7806 122.426 84.7806C123.768 84.7806 124.825 85.0643 125.595 85.6319C126.371 86.1994 126.823 86.9723 126.952 87.9504Z" fill="#4D4D4D"/>
</svg>
